<?xml version="1.0" encoding="utf-8"?>
<!-- Generator: Adobe Illustrator 24.3.0, SVG Export Plug-In . SVG Version: 6.00 Build 0)  -->
<svg version="1.1" id="Layer_1" xmlns="http://www.w3.org/2000/svg" xmlns:xlink="http://www.w3.org/1999/xlink" x="0px" y="0px"
	 viewBox="0 0 165.6 58.5" style="enable-background:new 0 0 165.6 58.5;" xml:space="preserve">
<style type="text/css">
	.st0{fill:#B4937F;}
	.st1{fill:#FBBA46;}
	.st2{fill:none;}
	.st3{font-family:'Montserrat-Bold';}
	.st4{font-size:7px;}
	.st5{font-size:5px;}
</style>
<image style="overflow:visible;" width="276" height="95" xlink:href="D:\Downloads\nelisa.PNG"  transform="matrix(0.6 0 0 0.6 0 -127.1702)">
</image>
<image style="overflow:visible;" width="276" height="95" xlink:href="D:\Downloads\nelisa.PNG"  transform="matrix(0.6 0 0 0.6 -5.1064 -72.5319)">
</image>
<g>
	<path class="st0" d="M30.7,16.4c0.6,0,2.6-0.1,5.2,1.4c0.6,0.3,4.6,2.7,5.1,5.4c0,0.2,0.2,1.2,0.8,2.2c0.3,0.6,0.5,1,1,1.3
		c0.7,0.4,1.1,0.2,1.8,0.7c0.2,0.2,0.6,0.5,0.7,1c0,0.4-0.3,0.6-0.4,1.4c0,0.1-0.1,0.4-0.1,0.7c0,0.9,0.5,1.3,0.6,2.1
		c0.1,0.8-0.3,0.9-0.2,1.5c0.2,0.7,0.7,0.8,0.8,1.3c0.1,0.8-1,1.8-1.9,2.3c-1.6,0.9-2.5,0.2-3.6,0.9c-1.8,1-1,4.2-1.8,4.4
		c-0.7,0.1-1.9-2-2.6-4.6c-1-3.5-0.2-4.6-0.5-9c-0.3-4-0.6-8.3-3.4-10.4c-1.2-0.9-3.1-1.5-2.9-2C29.3,16.5,30.3,16.4,30.7,16.4z"/>
	<path class="st1" d="M26.6,17.1c3,0.2,4.9,2.8,5.8,4.3c0.5,0.7,1.8,2.6,2,5.3c0.1,0.9-0.1,1-0.2,2.7c-0.1,1.4-0.2,3.2,0,5.1
		c0.1,0.7,0.7,6.5,2.8,8.8c0.1,0.1,0.5,0.5,0.4,0.9c-0.1,0.9-1.7,1.9-2.9,1.7c-2.6-0.5-3.6-7.1-4-9.4C30,32.7,30.4,30.8,29,30
		c-1.3-0.8-2.4,0.5-4.9,0.1c-1.8-0.3-4.3-1.5-5.1-3.7c-1.2-3,1.1-6.5,3.5-8.1C23,18,24.5,17,26.6,17.1z"/>
	<rect x="51.7" y="25.3" class="st2" width="95.3" height="8.8"/>
	<text transform="matrix(1 0 0 1 51.6814 30.4582)" class="st1 st3 st4">Nelisa Awakening Africa</text>
	<rect x="49.3" y="33.9" class="st2" width="95.3" height="8.8"/>
	<text transform="matrix(1 0 0 1 54.6207 37.6152)" class="st0 st3 st5">For Self-Reliance And Resilience</text>
</g>
<rect x="25.7" y="81.2" class="st2" width="24" height="6.5"/>
<text transform="matrix(1 0 0 1 31.4249 84.9279)" class="st5" style="font-family:'Montserrat-Regular';">NAA</text>
</svg>
