<?xml version="1.0" encoding="utf-8"?>
<!-- Generator: Adobe Illustrator 24.3.0, SVG Export Plug-In . SVG Version: 6.00 Build 0)  -->
<svg version="1.1" id="Layer_1" xmlns="http://www.w3.org/2000/svg" xmlns:xlink="http://www.w3.org/1999/xlink" x="0px" y="0px"
	 viewBox="0 0 66.9 48.5" style="enable-background:new 0 0 66.9 48.5;" xml:space="preserve">
<style type="text/css">
	.st0{fill:url(#SVGID_1_);}
	.st1{fill:url(#SVGID_2_);}
	.st2{fill:url(#SVGID_3_);}
	.st3{fill:url(#SVGID_4_);}
	.st4{fill:url(#SVGID_5_);}
	.st5{fill:url(#SVGID_6_);}
	.st6{fill:url(#SVGID_7_);}
	.st7{fill:url(#SVGID_8_);}
	.st8{fill:url(#SVGID_9_);}
	.st9{fill:url(#SVGID_10_);}
	.st10{fill:url(#SVGID_11_);}
	.st11{fill:url(#SVGID_12_);}
	.st12{fill:url(#SVGID_13_);}
	.st13{fill:url(#SVGID_14_);}
	.st14{fill:url(#SVGID_15_);}
	.st15{fill:url(#SVGID_16_);}
	.st16{fill:url(#SVGID_17_);}
	.st17{fill:url(#SVGID_18_);}
	.st18{fill:url(#SVGID_19_);}
	.st19{fill:url(#SVGID_20_);}
	.st20{fill:url(#SVGID_21_);}
	.st21{fill:url(#SVGID_22_);}
	.st22{fill:url(#SVGID_23_);}
	.st23{fill:url(#SVGID_24_);}
	.st24{fill:url(#SVGID_25_);}
	.st25{fill:url(#SVGID_26_);}
	.st26{fill:url(#SVGID_27_);}
	.st27{fill:url(#SVGID_28_);}
	.st28{fill:url(#SVGID_29_);}
	.st29{fill:url(#SVGID_30_);}
	.st30{fill:url(#SVGID_31_);}
	.st31{fill:url(#SVGID_32_);}
	.st32{fill:url(#SVGID_33_);}
	.st33{fill:url(#SVGID_34_);}
	.st34{fill:url(#SVGID_35_);}
	.st35{fill:url(#SVGID_36_);}
	.st36{fill:url(#SVGID_37_);}
	.st37{fill:url(#SVGID_38_);}
	.st38{fill:url(#SVGID_39_);}
	.st39{fill:url(#SVGID_40_);}
	.st40{fill:url(#SVGID_41_);}
	.st41{fill:url(#SVGID_42_);}
	.st42{fill:url(#SVGID_43_);}
	.st43{fill:url(#SVGID_44_);}
	.st44{fill:url(#SVGID_45_);}
	.st45{fill:url(#SVGID_46_);}
	.st46{fill:url(#SVGID_47_);}
	.st47{fill:url(#SVGID_48_);}
	.st48{fill:url(#SVGID_49_);}
	.st49{fill:url(#SVGID_50_);}
	.st50{fill:url(#SVGID_51_);}
	.st51{fill:url(#SVGID_52_);}
	.st52{fill:url(#SVGID_53_);}
	.st53{fill:url(#SVGID_54_);}
	.st54{fill:url(#SVGID_55_);}
	.st55{fill:url(#SVGID_56_);}
	.st56{fill:url(#SVGID_57_);}
	.st57{fill:url(#SVGID_58_);}
	.st58{fill:url(#SVGID_59_);}
	.st59{fill:url(#SVGID_60_);}
	.st60{fill:url(#SVGID_61_);}
	.st61{fill:url(#SVGID_62_);}
	.st62{fill:url(#SVGID_63_);}
	.st63{fill:url(#SVGID_64_);}
	.st64{fill:url(#SVGID_65_);}
	.st65{fill:url(#SVGID_66_);}
	.st66{fill:url(#SVGID_67_);}
	.st67{fill:url(#SVGID_68_);}
	.st68{fill:url(#SVGID_69_);}
	.st69{fill:url(#SVGID_70_);}
	.st70{fill:url(#SVGID_71_);}
	.st71{fill:url(#SVGID_72_);}
	.st72{fill:url(#SVGID_73_);}
	.st73{fill:url(#SVGID_74_);}
	.st74{fill:url(#SVGID_75_);}
	.st75{fill:url(#SVGID_76_);}
	.st76{fill:url(#SVGID_77_);}
</style>
<g>
	<linearGradient id="SVGID_1_" gradientUnits="userSpaceOnUse" x1="16.567" y1="17.9227" x2="54.4434" y2="32.3171">
		<stop  offset="0" style="stop-color:#06097D"/>
		<stop  offset="5.701630e-02" style="stop-color:#04079E"/>
		<stop  offset="0.1822" style="stop-color:#0101F3"/>
		<stop  offset="0.1991" style="stop-color:#0000FF"/>
		<stop  offset="0.2021" style="stop-color:#0000FD"/>
		<stop  offset="0.2832" style="stop-color:#0304C6"/>
		<stop  offset="0.3532" style="stop-color:#04079E"/>
		<stop  offset="0.4085" style="stop-color:#060886"/>
		<stop  offset="0.4425" style="stop-color:#06097D"/>
		<stop  offset="0.4505" style="stop-color:#060980"/>
		<stop  offset="0.6339" style="stop-color:#0305B6"/>
		<stop  offset="0.7921" style="stop-color:#0202DE"/>
		<stop  offset="0.9175" style="stop-color:#0001F6"/>
		<stop  offset="0.9944" style="stop-color:#0000FF"/>
	</linearGradient>
	<path class="st0" d="M34.3,4.4C23.1,4.4,14,13.5,14,24.6c0,11.2,9.1,20.3,20.3,20.3c11.2,0,20.3-9.1,20.3-20.3
		C54.5,13.5,45.4,4.4,34.3,4.4z M34.5,40.1c-8.5,0-15.4-6.9-15.4-15.4c0-8.5,6.9-15.4,15.4-15.4c8.5,0,15.4,6.9,15.4,15.4
		C49.9,33.2,43,40.1,34.5,40.1z"/>
	<g>
		<linearGradient id="SVGID_2_" gradientUnits="userSpaceOnUse" x1="38.006" y1="14.0848" x2="40.1123" y2="14.0848">
			<stop  offset="0" style="stop-color:#C69C2C"/>
			<stop  offset="0.5521" style="stop-color:#C49B31"/>
			<stop  offset="0.8652" style="stop-color:#E6D25F"/>
			<stop  offset="0.9944" style="stop-color:#E7DB6F"/>
		</linearGradient>
		<path class="st1" d="M39.3,13.8C39.3,13.8,39.3,13.8,39.3,13.8c-0.1-0.3-0.2-0.5-0.3-0.7c0,0,0,0,0,0c0,0,0,0,0,0
			c-0.1,0.2-0.1,0.4-0.2,0.6c0,0,0,0-0.1,0c-0.2,0-0.5,0-0.7,0c0,0,0,0,0,0c0.2,0.1,0.4,0.3,0.6,0.4c0,0,0,0,0,0.1
			c-0.1,0.2-0.1,0.4-0.2,0.7c0,0,0,0,0,0h0c0.2-0.1,0.4-0.3,0.6-0.4c0,0,0,0,0,0c0.2,0.1,0.4,0.3,0.6,0.4h0c0,0,0,0,0,0
			c-0.1-0.2-0.1-0.5-0.2-0.7c0,0,0,0,0,0c0.2-0.1,0.4-0.3,0.6-0.4c0,0,0,0,0,0v0C39.9,13.8,39.6,13.8,39.3,13.8z"/>
		<linearGradient id="SVGID_3_" gradientUnits="userSpaceOnUse" x1="32.8311" y1="12.3795" x2="35.7263" y2="12.3795">
			<stop  offset="0" style="stop-color:#C69C2C"/>
			<stop  offset="0.5521" style="stop-color:#C49B31"/>
			<stop  offset="0.8652" style="stop-color:#E6D25F"/>
			<stop  offset="0.9944" style="stop-color:#E7DB6F"/>
		</linearGradient>
		<path class="st2" d="M32.9,12.1c0.3,0.2,0.5,0.4,0.8,0.6c0,0,0,0,0,0.1c0,0.1,0,0.1-0.1,0.2c-0.1,0.2-0.1,0.3-0.2,0.5
			c0,0.1-0.1,0.2-0.1,0.3c0,0,0,0,0,0c0.3-0.2,0.5-0.4,0.8-0.6c0,0,0,0,0.1,0c0.3,0.2,0.6,0.4,0.8,0.6c0,0,0,0,0,0c0,0,0,0,0,0
			c-0.1-0.3-0.2-0.6-0.3-1c0,0,0,0,0-0.1c0.2-0.2,0.4-0.3,0.7-0.5c0.1,0,0.1-0.1,0.2-0.1c0,0,0,0,0,0c-0.3,0-0.7,0-1,0
			c0,0,0,0-0.1,0c-0.1-0.2-0.1-0.3-0.2-0.5c-0.1-0.2-0.1-0.3-0.2-0.5c0,0,0,0,0,0c-0.1,0.3-0.2,0.6-0.3,0.9c0,0,0,0-0.1,0
			c-0.2,0-0.5,0-0.7,0C33.1,12.1,32.9,12.1,32.9,12.1C32.8,12.1,32.9,12.1,32.9,12.1z"/>
		<linearGradient id="SVGID_4_" gradientUnits="userSpaceOnUse" x1="30.5326" y1="13.146" x2="32.9819" y2="13.146">
			<stop  offset="0" style="stop-color:#C69C2C"/>
			<stop  offset="0.5521" style="stop-color:#C49B31"/>
			<stop  offset="0.8652" style="stop-color:#E6D25F"/>
			<stop  offset="0.9944" style="stop-color:#E7DB6F"/>
		</linearGradient>
		<path class="st3" d="M31.2,13.4C31.3,13.4,31.3,13.4,31.2,13.4c0,0.2-0.1,0.4-0.2,0.6c0,0.1-0.1,0.2-0.1,0.3c0,0,0,0,0,0
			c0.2-0.2,0.5-0.3,0.7-0.5c0,0,0,0,0.1,0c0.1,0.1,0.2,0.2,0.3,0.2c0.1,0.1,0.3,0.2,0.4,0.3c0,0,0,0,0,0c-0.1-0.3-0.2-0.5-0.2-0.8
			c0,0,0,0,0-0.1c0.2-0.1,0.3-0.2,0.5-0.4c0.1,0,0.1-0.1,0.2-0.2c0,0,0,0,0,0c-0.3,0-0.6,0-0.9,0c0,0,0,0-0.1,0
			c-0.1-0.2-0.1-0.4-0.2-0.7c0,0,0-0.1-0.1-0.1c0,0,0,0,0,0c-0.1,0.3-0.2,0.5-0.3,0.8c0,0,0,0-0.1,0c-0.3,0-0.6,0-0.8,0c0,0,0,0,0,0
			c0,0,0,0,0,0C30.8,13.1,31,13.2,31.2,13.4z"/>
		<linearGradient id="SVGID_5_" gradientUnits="userSpaceOnUse" x1="35.5715" y1="13.1439" x2="38.0265" y2="13.1439">
			<stop  offset="0" style="stop-color:#C69C2C"/>
			<stop  offset="0.5521" style="stop-color:#C49B31"/>
			<stop  offset="0.8652" style="stop-color:#E6D25F"/>
			<stop  offset="0.9944" style="stop-color:#E7DB6F"/>
		</linearGradient>
		<path class="st4" d="M35.6,12.9C35.6,12.9,35.6,12.9,35.6,12.9c0,0,0.1,0.1,0.1,0.1c0,0,0.1,0.1,0.2,0.1c0,0,0,0,0,0
			c0.1,0.1,0.3,0.2,0.4,0.3c0,0,0,0,0,0.1c-0.1,0.2-0.1,0.4-0.2,0.6c0,0.1,0,0.1-0.1,0.2c0,0,0,0,0,0c0.2-0.2,0.5-0.3,0.7-0.5
			c0,0,0,0,0.1,0c0.2,0.1,0.3,0.2,0.5,0.3c0.1,0.1,0.2,0.1,0.3,0.2c0,0,0,0,0,0c-0.1-0.3-0.2-0.5-0.2-0.8c0,0,0,0,0-0.1
			c0.2-0.1,0.4-0.3,0.5-0.4c0.1,0,0.1-0.1,0.2-0.1c0,0,0,0,0,0c-0.3,0-0.6,0-0.9,0c0,0,0,0-0.1,0c0-0.2-0.1-0.3-0.2-0.5
			c0-0.1,0-0.2-0.1-0.2l0,0c0,0,0-0.1,0-0.1c0,0,0,0.1,0,0.1h0c0,0,0,0,0,0.1c0,0,0,0.1-0.1,0.2c0,0,0,0,0,0
			c-0.1,0.2-0.1,0.3-0.2,0.5c0,0,0,0-0.1,0c-0.2,0-0.4,0-0.6,0C35.8,12.9,35.7,12.9,35.6,12.9z"/>
		<linearGradient id="SVGID_6_" gradientUnits="userSpaceOnUse" x1="28.4261" y1="14.0736" x2="30.5432" y2="14.0736">
			<stop  offset="0" style="stop-color:#C69C2C"/>
			<stop  offset="0.5521" style="stop-color:#C49B31"/>
			<stop  offset="0.8652" style="stop-color:#E6D25F"/>
			<stop  offset="0.9944" style="stop-color:#E7DB6F"/>
		</linearGradient>
		<path class="st5" d="M29,14.4c0,0.1-0.1,0.2-0.1,0.4c0,0.1-0.1,0.2-0.1,0.3c0,0,0,0,0,0c0.2-0.1,0.4-0.3,0.6-0.4c0,0,0,0,0.1,0
			c0.1,0.1,0.1,0.1,0.2,0.1c0.1,0.1,0.3,0.2,0.4,0.3c0,0,0,0,0-0.1c-0.1-0.2-0.1-0.4-0.2-0.7c0,0,0,0,0-0.1c0.2-0.1,0.4-0.3,0.6-0.4
			c0,0,0,0,0,0c-0.2,0-0.5,0-0.7,0c0,0-0.1,0-0.1-0.1c-0.1-0.2-0.2-0.5-0.2-0.7c0,0,0,0,0,0c-0.1,0.2-0.2,0.5-0.2,0.7c0,0,0,0-0.1,0
			c-0.2,0-0.5,0-0.7,0c0,0,0,0,0,0C28.6,14,28.8,14.1,29,14.4C29,14.3,29.1,14.3,29,14.4z"/>
		<linearGradient id="SVGID_7_" gradientUnits="userSpaceOnUse" x1="33.3602" y1="13.7074" x2="33.3669" y2="13.7074">
			<stop  offset="0" style="stop-color:#C69C2C"/>
			<stop  offset="0.5521" style="stop-color:#C49B31"/>
			<stop  offset="0.8652" style="stop-color:#E6D25F"/>
			<stop  offset="0.9944" style="stop-color:#E7DB6F"/>
		</linearGradient>
		<polygon class="st6" points="33.4,13.7 33.4,13.7 33.4,13.7 		"/>
		<linearGradient id="SVGID_8_" gradientUnits="userSpaceOnUse" x1="33.3639" y1="13.704" x2="33.3651" y2="13.704">
			<stop  offset="0" style="stop-color:#C69C2C"/>
			<stop  offset="0.5521" style="stop-color:#C49B31"/>
			<stop  offset="0.8652" style="stop-color:#E6D25F"/>
			<stop  offset="0.9944" style="stop-color:#E7DB6F"/>
		</linearGradient>
		<polygon class="st7" points="33.4,13.7 33.4,13.7 33.4,13.7 33.4,13.7 33.4,13.7 33.4,13.7 		"/>
	</g>
	<g>
		<linearGradient id="SVGID_9_" gradientUnits="userSpaceOnUse" x1="15.9683" y1="29.5387" x2="18.582" y2="29.5387">
			<stop  offset="0" style="stop-color:#C69C2C"/>
			<stop  offset="0.5521" style="stop-color:#C49B31"/>
			<stop  offset="0.8652" style="stop-color:#E6D25F"/>
			<stop  offset="0.9944" style="stop-color:#E7DB6F"/>
		</linearGradient>
		<path class="st8" d="M18.1,28.1l0.1,0.6l-0.9,1c0,0.1,0,0.1,0,0.1c0,0,0,0,0,0c0,0,0,0,0,0.1l0.7-0.2c0.1,0,0.2-0.1,0.3-0.1
			c0-0.1,0.1-0.1,0-0.2l0-0.1l0.1,0l0.2,1l-0.1,0l0-0.1c0-0.1-0.1-0.2-0.1-0.2c0,0-0.1,0-0.3,0l-1.5,0.3c-0.1,0-0.2,0.1-0.3,0.1
			c0,0.1-0.1,0.1,0,0.2l0,0.1l-0.1,0L16,30.1C16,29.9,16,29.7,16,29.6c0-0.1,0.1-0.2,0.1-0.3c0.1-0.1,0.2-0.2,0.3-0.2
			c0.1,0,0.3,0,0.4,0c0.1,0.1,0.2,0.2,0.3,0.4l0.6-0.6c0.1-0.1,0.2-0.3,0.2-0.3C18,28.4,18,28.3,18.1,28.1L18.1,28.1z M17.2,30
			C17.2,30,17.2,30,17.2,30C17.2,30,17.2,29.9,17.2,30c-0.1-0.3-0.2-0.5-0.3-0.6c-0.1-0.1-0.3-0.1-0.4-0.1c-0.1,0-0.3,0.1-0.3,0.2
			c-0.1,0.1-0.1,0.2-0.1,0.4c0,0.1,0,0.1,0.1,0.3L17.2,30z"/>
		<linearGradient id="SVGID_10_" gradientUnits="userSpaceOnUse" x1="15.4813" y1="27.1078" x2="18.0483" y2="27.1078">
			<stop  offset="0" style="stop-color:#C69C2C"/>
			<stop  offset="0.5521" style="stop-color:#C49B31"/>
			<stop  offset="0.8652" style="stop-color:#E6D25F"/>
			<stop  offset="0.9944" style="stop-color:#E7DB6F"/>
		</linearGradient>
		<path class="st9" d="M15.7,27.5l1-0.1l0-0.5c0-0.1,0-0.2-0.1-0.3c-0.1-0.1-0.2-0.1-0.3-0.1l0-0.1l0.8-0.1l0,0.1
			c-0.1,0-0.2,0-0.2,0.1c0,0-0.1,0.1-0.1,0.1c0,0,0,0.1,0,0.2l0,0.5l0.8-0.1c0.1,0,0.2,0,0.2,0c0,0,0,0,0.1-0.1c0,0,0-0.1,0-0.1
			l0-0.4c0-0.1,0-0.2-0.1-0.3c0-0.1-0.1-0.1-0.1-0.2c-0.1-0.1-0.2-0.1-0.4-0.2l0-0.1l0.6,0.1L18,28L18,28l0-0.1c0-0.1,0-0.1-0.1-0.2
			c0,0-0.1-0.1-0.1-0.1c0,0-0.1,0-0.2,0L16,27.8c-0.2,0-0.2,0-0.3,0.1c0,0-0.1,0.1-0.1,0.2l0,0.1l-0.1,0l-0.2-1.8l0.5-0.1l0,0.1
			c-0.1,0-0.2,0.1-0.3,0.1c0,0-0.1,0.1-0.1,0.1c0,0,0,0.1,0,0.2L15.7,27.5z"/>
		<linearGradient id="SVGID_11_" gradientUnits="userSpaceOnUse" x1="15.4636" y1="25.1403" x2="17.8931" y2="25.1403">
			<stop  offset="0" style="stop-color:#C69C2C"/>
			<stop  offset="0.5521" style="stop-color:#C49B31"/>
			<stop  offset="0.8652" style="stop-color:#E6D25F"/>
			<stop  offset="0.9944" style="stop-color:#E7DB6F"/>
		</linearGradient>
		<path class="st10" d="M17.8,24.7L17.8,24.7l0.1,1l-0.1,0l0-0.1c0-0.1,0-0.2-0.1-0.2c0,0-0.1,0-0.3,0l-1.6,0c-0.1,0-0.2,0-0.2,0
			c0,0-0.1,0-0.1,0.1c0,0,0,0.1,0,0.2l0,0.1l-0.1,0l0-1l0.1,0l0,0.1c0,0.1,0,0.2,0.1,0.2c0,0,0.1,0,0.3,0l1.6,0c0.1,0,0.2,0,0.2,0
			c0,0,0.1,0,0.1-0.1C17.8,24.8,17.8,24.8,17.8,24.7L17.8,24.7z"/>
		<linearGradient id="SVGID_12_" gradientUnits="userSpaceOnUse" x1="15.4611" y1="22.9951" x2="18.1675" y2="22.9951">
			<stop  offset="0" style="stop-color:#C69C2C"/>
			<stop  offset="0.5521" style="stop-color:#C49B31"/>
			<stop  offset="0.8652" style="stop-color:#E6D25F"/>
			<stop  offset="0.9944" style="stop-color:#E7DB6F"/>
		</linearGradient>
		<path class="st11" d="M15.5,24.2l0.1-0.6l2-1.2l-1.4-0.2c-0.1,0-0.2,0-0.3,0c-0.1,0-0.1,0.1-0.1,0.2l0,0.1l-0.1,0l0.1-0.8l0.1,0
			l0,0.1c0,0.1,0,0.2,0.1,0.2c0,0,0.1,0.1,0.3,0.1l2,0.3l0,0.1L16,23.6l1.5,0.2c0.1,0,0.2,0,0.3,0c0.1,0,0.1-0.1,0.1-0.2l0-0.1
			l0.1,0l-0.1,0.8l-0.1,0l0-0.1c0-0.1,0-0.2-0.1-0.2c0,0-0.1-0.1-0.3-0.1l-1.7-0.2c-0.1,0.1-0.1,0.1-0.2,0.1c0,0-0.1,0.1-0.1,0.1
			C15.5,24.1,15.5,24.1,15.5,24.2L15.5,24.2z"/>
		<linearGradient id="SVGID_13_" gradientUnits="userSpaceOnUse" x1="15.8926" y1="20.2308" x2="18.8721" y2="20.2308">
			<stop  offset="0" style="stop-color:#C69C2C"/>
			<stop  offset="0.5521" style="stop-color:#C49B31"/>
			<stop  offset="0.8652" style="stop-color:#E6D25F"/>
			<stop  offset="0.9944" style="stop-color:#E7DB6F"/>
		</linearGradient>
		<path class="st12" d="M17.2,20.7l0.3-1l-0.7-0.2c-0.1,0-0.2,0-0.2,0c0,0-0.1,0-0.1,0c0,0-0.1,0.1-0.1,0.1l0,0.1l-0.1,0l0.3-1
			l0.1,0l0,0.1c0,0.1,0,0.1,0,0.2c0,0,0,0.1,0.1,0.1c0,0,0.1,0.1,0.2,0.1l1.5,0.4c0.1,0,0.2,0,0.2,0c0,0,0.1,0,0.1,0
			c0,0,0.1-0.1,0.1-0.1l0-0.1l0.1,0l-0.3,1l-0.1,0l0-0.1c0-0.1,0-0.2,0-0.2c0,0-0.1-0.1-0.3-0.1l-0.7-0.2l-0.3,1L18,21
			c0.1,0,0.2,0,0.2,0c0,0,0.1,0,0.1,0c0,0,0.1-0.1,0.1-0.1l0-0.1l0.1,0l-0.3,1l-0.1,0l0-0.1c0-0.1,0-0.2,0-0.2c0,0-0.1-0.1-0.3-0.1
			l-1.5-0.4c-0.1,0-0.2,0-0.2,0c0,0-0.1,0-0.1,0c0,0-0.1,0.1-0.1,0.1l0,0.1l-0.1,0l0.3-1l0.1,0l0,0.1c0,0.1,0,0.1,0,0.2
			c0,0,0,0.1,0.1,0.1c0,0,0.1,0.1,0.2,0.1L17.2,20.7z"/>
		<linearGradient id="SVGID_14_" gradientUnits="userSpaceOnUse" x1="17.2025" y1="18.0492" x2="19.9776" y2="18.0492">
			<stop  offset="0" style="stop-color:#C69C2C"/>
			<stop  offset="0.5521" style="stop-color:#C49B31"/>
			<stop  offset="0.8652" style="stop-color:#E6D25F"/>
			<stop  offset="0.9944" style="stop-color:#E7DB6F"/>
		</linearGradient>
		<path class="st13" d="M18.9,17.4l-0.4,0.8l0.3,0.3c0.1,0.1,0.1,0.1,0.2,0.1c0,0,0.1,0,0.1,0c0,0,0.1-0.1,0.1-0.2l0.1,0l-0.3,0.7
			l-0.1,0c0-0.1,0-0.2,0-0.2c0-0.1-0.1-0.2-0.2-0.3l-1.5-1.6l0-0.1l2.2,0.1c0.2,0,0.3,0,0.4,0c0.1,0,0.1-0.1,0.2-0.2l0.1,0l-0.4,0.8
			l-0.1,0c0-0.1,0-0.2,0-0.2c0,0,0-0.1-0.1-0.1c0,0-0.1,0-0.3,0L18.9,17.4z M18.7,17.4l-1.1,0l0.7,0.8L18.7,17.4z"/>
		<linearGradient id="SVGID_15_" gradientUnits="userSpaceOnUse" x1="18.0715" y1="15.4471" x2="21.362" y2="15.4471">
			<stop  offset="0" style="stop-color:#C69C2C"/>
			<stop  offset="0.5521" style="stop-color:#C49B31"/>
			<stop  offset="0.8652" style="stop-color:#E6D25F"/>
			<stop  offset="0.9944" style="stop-color:#E7DB6F"/>
		</linearGradient>
		<path class="st14" d="M21.4,14.8L21,15.3l-1.4,0c0,0.1-0.1,0.1-0.1,0.1c0,0,0,0,0,0c0,0,0,0,0,0l0.6,0.4c0.1,0.1,0.2,0.1,0.3,0.1
			c0.1,0,0.1,0,0.2-0.1l0-0.1l0.1,0l-0.5,0.8l-0.1,0l0-0.1c0.1-0.1,0.1-0.2,0-0.2c0,0-0.1-0.1-0.2-0.2l-1.3-0.9
			c-0.1-0.1-0.2-0.1-0.3-0.1c-0.1,0-0.1,0.1-0.2,0.1l0,0.1l-0.1,0l0.5-0.7c0.1-0.2,0.3-0.3,0.3-0.4c0.1-0.1,0.2-0.1,0.3-0.1
			c0.1,0,0.3,0,0.4,0.1c0.1,0.1,0.2,0.2,0.2,0.3c0,0.1,0,0.3,0,0.5l0.8,0c0.2,0,0.3,0,0.4-0.1C21.1,14.9,21.2,14.9,21.4,14.8
			L21.4,14.8z M19.4,15.5C19.4,15.5,19.4,15.5,19.4,15.5C19.5,15.5,19.5,15.4,19.4,15.5c0.2-0.3,0.2-0.4,0.2-0.6s-0.1-0.3-0.2-0.4
			c-0.1-0.1-0.3-0.1-0.4-0.1c-0.1,0-0.2,0.1-0.3,0.2c0,0.1-0.1,0.1-0.1,0.2L19.4,15.5z"/>
		<linearGradient id="SVGID_16_" gradientUnits="userSpaceOnUse" x1="19.6549" y1="13.2307" x2="22.5491" y2="13.2307">
			<stop  offset="0" style="stop-color:#C69C2C"/>
			<stop  offset="0.5521" style="stop-color:#C49B31"/>
			<stop  offset="0.8652" style="stop-color:#E6D25F"/>
			<stop  offset="0.9944" style="stop-color:#E7DB6F"/>
		</linearGradient>
		<path class="st15" d="M21.5,14.7L21.5,14.7l0-0.1c0.1-0.1,0.1-0.1,0.1-0.2c0,0-0.1-0.1-0.2-0.2l-1.2-1C20.1,13,20,13,20,13
			c-0.1,0-0.1,0-0.2,0.1l-0.1,0.1l0,0l0.6-0.7c0.2-0.3,0.4-0.4,0.6-0.5c0.2-0.1,0.4-0.1,0.6-0.1c0.2,0,0.4,0.2,0.6,0.3
			c0.3,0.2,0.4,0.5,0.4,0.8c0,0.3-0.1,0.7-0.4,1L21.5,14.7z M21.8,14.1c0.1-0.1,0.2-0.2,0.3-0.2c0.2-0.2,0.3-0.4,0.2-0.7
			c0-0.3-0.2-0.5-0.4-0.7c-0.2-0.2-0.5-0.3-0.8-0.3c-0.3,0-0.5,0.1-0.7,0.3c-0.1,0.1-0.1,0.2-0.2,0.3L21.8,14.1z"/>
		<linearGradient id="SVGID_17_" gradientUnits="userSpaceOnUse" x1="22.5485" y1="10.3146" x2="25.7721" y2="10.3146">
			<stop  offset="0" style="stop-color:#C69C2C"/>
			<stop  offset="0.5521" style="stop-color:#C49B31"/>
			<stop  offset="0.8652" style="stop-color:#E6D25F"/>
			<stop  offset="0.9944" style="stop-color:#E7DB6F"/>
		</linearGradient>
		<path class="st16" d="M22.5,10.1l0.5-0.4l2.2,0.6l-0.8-1.1c-0.1-0.1-0.2-0.2-0.2-0.2c-0.1,0-0.1,0-0.2,0.1l-0.1,0l0-0.1l0.7-0.5
			l0,0.1l-0.1,0c-0.1,0.1-0.1,0.1-0.1,0.2c0,0,0,0.1,0.1,0.2l1.2,1.7l-0.1,0l-2.4-0.7l0.9,1.2c0.1,0.1,0.2,0.2,0.2,0.2
			c0.1,0,0.1,0,0.2-0.1l0.1,0l0,0.1L24.1,12l0-0.1l0.1,0c0.1-0.1,0.1-0.1,0.1-0.2c0,0,0-0.1-0.1-0.2l-1-1.4c-0.1,0-0.2,0-0.2,0
			c0,0-0.1,0-0.2,0C22.7,10.1,22.6,10.1,22.5,10.1L22.5,10.1z"/>
		<linearGradient id="SVGID_18_" gradientUnits="userSpaceOnUse" x1="25.1209" y1="8.7098" x2="27.7304" y2="8.7098">
			<stop  offset="0" style="stop-color:#C69C2C"/>
			<stop  offset="0.5521" style="stop-color:#C49B31"/>
			<stop  offset="0.8652" style="stop-color:#E6D25F"/>
			<stop  offset="0.9944" style="stop-color:#E7DB6F"/>
		</linearGradient>
		<path class="st17" d="M26.6,7.6l0.7-0.4l0,0.1l0,0c0,0-0.1,0-0.1,0.1c0,0-0.1,0.1-0.1,0.2c0,0.1,0,0.2,0,0.3L27,9l0.3,0.5
			c0.1,0.1,0.1,0.2,0.2,0.2c0.1,0,0.1,0,0.2,0l0.1,0l0,0.1l-0.9,0.4l0-0.1l0.1,0C27,10,27,10,27,9.9c0,0,0-0.1-0.1-0.3l-0.3-0.5
			l-1-0.6c-0.1-0.1-0.2-0.1-0.2-0.1c0,0-0.1,0-0.2,0c0,0-0.1,0-0.1,0l0-0.1L26,7.9l0,0.1l0,0c0,0-0.1,0.1-0.1,0.1c0,0,0,0.1,0,0.1
			c0,0,0.1,0.1,0.2,0.2l0.8,0.5L26.9,8c0-0.1,0-0.2,0-0.3c0,0,0-0.1-0.1-0.1c0,0-0.1,0-0.1,0C26.7,7.6,26.7,7.6,26.6,7.6L26.6,7.6z"
			/>
		<linearGradient id="SVGID_19_" gradientUnits="userSpaceOnUse" x1="28.2023" y1="8.1096" x2="30.5783" y2="8.1096">
			<stop  offset="0" style="stop-color:#C69C2C"/>
			<stop  offset="0.5521" style="stop-color:#C49B31"/>
			<stop  offset="0.8652" style="stop-color:#E6D25F"/>
			<stop  offset="0.9944" style="stop-color:#E7DB6F"/>
		</linearGradient>
		<path class="st18" d="M29.5,8.2l-0.9,0.3l0,0.4c0,0.1,0,0.2,0,0.2c0,0,0,0.1,0.1,0.1c0,0,0.1,0,0.2,0l0,0.1l-0.7,0.2l0-0.1
			c0.1,0,0.1-0.1,0.2-0.1c0-0.1,0.1-0.2,0.1-0.4l0.2-2.1l0.1,0l1.4,1.7c0.1,0.1,0.2,0.2,0.3,0.2c0.1,0,0.1,0,0.2,0l0,0.1L29.7,9
			l0-0.1c0.1,0,0.1-0.1,0.2-0.1c0,0,0-0.1,0-0.1c0,0-0.1-0.1-0.1-0.2L29.5,8.2z M29.4,8.1l-0.7-0.8l-0.1,1.1L29.4,8.1z"/>
		<linearGradient id="SVGID_20_" gradientUnits="userSpaceOnUse" x1="30.4221" y1="7.3872" x2="32.7705" y2="7.3872">
			<stop  offset="0" style="stop-color:#C69C2C"/>
			<stop  offset="0.5521" style="stop-color:#C49B31"/>
			<stop  offset="0.8652" style="stop-color:#E6D25F"/>
			<stop  offset="0.9944" style="stop-color:#E7DB6F"/>
		</linearGradient>
		<path class="st19" d="M32.2,7.2c0.2,0,0.3,0,0.4,0.1c0.1,0.1,0.2,0.2,0.2,0.4c0,0.1,0,0.2-0.1,0.4c-0.1,0.1-0.1,0.2-0.3,0.3
			c-0.1,0.1-0.3,0.1-0.6,0.2l-1.1,0.2l0-0.1l0.1,0c0.1,0,0.2-0.1,0.2-0.1c0,0,0-0.1,0-0.3l-0.2-1.5c0-0.1-0.1-0.2-0.1-0.3
			c-0.1,0-0.1-0.1-0.2,0l-0.1,0l0-0.1l1-0.2c0.2,0,0.3,0,0.5,0c0.2,0,0.3,0.1,0.4,0.2c0.1,0.1,0.2,0.2,0.2,0.3c0,0.1,0,0.2-0.1,0.3
			C32.4,7.1,32.3,7.1,32.2,7.2z M31.2,7.3c0,0,0.1,0,0.1,0c0.1,0,0.1,0,0.2,0c0.2,0,0.3-0.1,0.4-0.1c0.1,0,0.1-0.1,0.2-0.2
			c0-0.1,0-0.2,0-0.3c0-0.1-0.1-0.3-0.2-0.3c-0.1-0.1-0.3-0.1-0.5-0.1c-0.1,0-0.2,0-0.3,0.1L31.2,7.3z M31.4,8.4c0.1,0,0.3,0,0.4,0
			c0.2,0,0.4-0.1,0.4-0.2c0.1-0.1,0.1-0.2,0.1-0.4c0-0.1-0.1-0.2-0.1-0.3c-0.1-0.1-0.2-0.1-0.3-0.2c-0.1,0-0.3,0-0.4,0
			c-0.1,0-0.1,0-0.2,0c0,0-0.1,0-0.1,0L31.4,8.4z"/>
		<linearGradient id="SVGID_21_" gradientUnits="userSpaceOnUse" x1="33.2042" y1="7.1182" x2="34.2859" y2="7.1182">
			<stop  offset="0" style="stop-color:#C69C2C"/>
			<stop  offset="0.5521" style="stop-color:#C49B31"/>
			<stop  offset="0.8652" style="stop-color:#E6D25F"/>
			<stop  offset="0.9944" style="stop-color:#E7DB6F"/>
		</linearGradient>
		<path class="st20" d="M34.3,8.2L34.3,8.2l-1,0.1l0-0.1l0.1,0c0.1,0,0.2,0,0.2-0.1c0,0,0-0.1,0-0.3l-0.1-1.6c0-0.1,0-0.2,0-0.2
			c0,0,0-0.1-0.1-0.1c-0.1,0-0.1,0-0.2,0l-0.1,0l0-0.1l1,0l0,0.1l-0.1,0C34,6,34,6,33.9,6.1c0,0,0,0.1,0,0.3l0.1,1.6
			c0,0.1,0,0.2,0,0.2c0,0,0,0.1,0.1,0.1C34.1,8.2,34.1,8.2,34.3,8.2L34.3,8.2z"/>
		<linearGradient id="SVGID_22_" gradientUnits="userSpaceOnUse" x1="34.594" y1="7.1771" x2="37.2112" y2="7.1771">
			<stop  offset="0" style="stop-color:#C69C2C"/>
			<stop  offset="0.5521" style="stop-color:#C49B31"/>
			<stop  offset="0.8652" style="stop-color:#E6D25F"/>
			<stop  offset="0.9944" style="stop-color:#E7DB6F"/>
		</linearGradient>
		<path class="st21" d="M34.7,5.9l0.6,0.1l1.3,1.9l0.1-1.4c0-0.1,0-0.2,0-0.3c0-0.1-0.1-0.1-0.2-0.1l-0.1,0l0-0.1l0.8,0.1l0,0.1
			l-0.1,0c-0.1,0-0.2,0-0.2,0.1c0,0,0,0.1-0.1,0.3l-0.2,2l-0.1,0l-1.4-2.1l-0.1,1.5c0,0.1,0,0.2,0,0.3c0,0.1,0.1,0.1,0.2,0.1l0.1,0
			l0,0.1l-0.8-0.1l0-0.1l0.1,0c0.1,0,0.2,0,0.2-0.1c0,0,0-0.1,0.1-0.3l0.1-1.7C35,6.1,35,6.1,35,6c0,0-0.1-0.1-0.1-0.1
			C34.8,5.9,34.7,5.9,34.7,5.9L34.7,5.9z"/>
		<linearGradient id="SVGID_23_" gradientUnits="userSpaceOnUse" x1="37.2159" y1="7.5235" x2="39.847" y2="7.5235">
			<stop  offset="0" style="stop-color:#C69C2C"/>
			<stop  offset="0.5521" style="stop-color:#C49B31"/>
			<stop  offset="0.8652" style="stop-color:#E6D25F"/>
			<stop  offset="0.9944" style="stop-color:#E7DB6F"/>
		</linearGradient>
		<path class="st22" d="M37.2,8.5L37.2,8.5l0.1,0c0.1,0,0.2,0,0.2,0c0,0,0.1-0.1,0.1-0.2L38,6.7c0-0.1,0-0.2,0-0.3
			c0-0.1-0.1-0.1-0.2-0.1l-0.1,0l0-0.1l0.9,0.2c0.3,0.1,0.6,0.2,0.7,0.3c0.2,0.1,0.3,0.3,0.3,0.5c0.1,0.2,0.1,0.4,0,0.7
			c-0.1,0.3-0.3,0.6-0.5,0.7c-0.3,0.2-0.6,0.2-1.1,0.1L37.2,8.5z M37.9,8.5c0.1,0.1,0.2,0.1,0.3,0.1c0.3,0.1,0.5,0,0.7-0.1
			c0.2-0.1,0.4-0.4,0.5-0.7c0.1-0.3,0.1-0.6-0.1-0.8c-0.1-0.2-0.3-0.4-0.6-0.5c-0.1,0-0.2,0-0.4,0L37.9,8.5z"/>
		<linearGradient id="SVGID_24_" gradientUnits="userSpaceOnUse" x1="39.7519" y1="8.8327" x2="42.0385" y2="8.8327">
			<stop  offset="0" style="stop-color:#C69C2C"/>
			<stop  offset="0.5521" style="stop-color:#C49B31"/>
			<stop  offset="0.8652" style="stop-color:#E6D25F"/>
			<stop  offset="0.9944" style="stop-color:#E7DB6F"/>
		</linearGradient>
		<path class="st23" d="M41.5,9.1l-0.8-0.4L40.4,9c-0.1,0.1-0.1,0.1-0.1,0.2c0,0,0,0.1,0,0.1c0,0,0.1,0.1,0.2,0.1l0,0.1l-0.7-0.3
			l0-0.1c0.1,0,0.2,0,0.2,0c0.1,0,0.2-0.1,0.3-0.2l1.6-1.5l0.1,0l-0.1,2.2c0,0.2,0,0.3,0,0.4c0,0.1,0.1,0.1,0.2,0.2l0,0.1l-0.8-0.4
			l0-0.1c0.1,0,0.2,0,0.2,0c0,0,0.1,0,0.1-0.1c0,0,0-0.1,0-0.3L41.5,9.1z M41.5,9l0-1.1l-0.8,0.7L41.5,9z"/>
		<linearGradient id="SVGID_25_" gradientUnits="userSpaceOnUse" x1="42.9426" y1="10.1017" x2="45.759" y2="10.1017">
			<stop  offset="0" style="stop-color:#C69C2C"/>
			<stop  offset="0.5521" style="stop-color:#C49B31"/>
			<stop  offset="0.8652" style="stop-color:#E6D25F"/>
			<stop  offset="0.9944" style="stop-color:#E7DB6F"/>
		</linearGradient>
		<path class="st24" d="M44.8,9.3l-0.6,0.8l0.3,0.2c0.1,0.1,0.2,0.1,0.2,0.1c0.1,0,0.1-0.1,0.2-0.2l0.1,0L44.6,11l-0.1,0
			c0.1-0.1,0.1-0.1,0.1-0.2c0,0,0-0.1,0-0.1c0,0-0.1-0.1-0.1-0.1l-0.3-0.2l-0.4,0.6c-0.1,0.1-0.1,0.2-0.1,0.2c0,0,0,0.1,0,0.1
			c0,0.1,0.1,0.1,0.1,0.1l0.1,0l0,0.1l-0.8-0.6l0-0.1l0.1,0c0.1,0.1,0.2,0.1,0.2,0.1c0,0,0.1-0.1,0.2-0.2l0.9-1.3
			c0.1-0.1,0.1-0.2,0.1-0.2c0,0,0-0.1,0-0.1c0-0.1-0.1-0.1-0.1-0.1l-0.1,0l0-0.1l1.4,1l-0.3,0.4l0,0c0-0.1,0.1-0.2,0.1-0.3
			c0-0.1,0-0.1-0.1-0.2c0-0.1-0.1-0.1-0.2-0.2L44.8,9.3z"/>
		<linearGradient id="SVGID_26_" gradientUnits="userSpaceOnUse" x1="45.1322" y1="11.9667" x2="47.5594" y2="11.9667">
			<stop  offset="0" style="stop-color:#C69C2C"/>
			<stop  offset="0.5521" style="stop-color:#C49B31"/>
			<stop  offset="0.8652" style="stop-color:#E6D25F"/>
			<stop  offset="0.9944" style="stop-color:#E7DB6F"/>
		</linearGradient>
		<path class="st25" d="M47.2,11.1c0.2,0.2,0.3,0.5,0.3,0.8c0,0.3-0.1,0.6-0.4,0.9c-0.3,0.3-0.5,0.4-0.9,0.4c-0.3,0-0.6-0.1-0.8-0.3
			c-0.2-0.2-0.3-0.5-0.3-0.8c0-0.3,0.1-0.6,0.4-0.9c0.3-0.3,0.6-0.4,0.9-0.4C46.8,10.8,47,10.9,47.2,11.1z M47.1,11.1
			C47,11,46.8,10.9,46.6,11c-0.3,0-0.5,0.2-0.8,0.5c-0.3,0.3-0.4,0.6-0.5,0.8c0,0.2,0,0.4,0.2,0.5c0.2,0.2,0.3,0.2,0.6,0.2
			s0.5-0.2,0.7-0.5c0.3-0.3,0.4-0.6,0.5-0.8C47.4,11.5,47.3,11.3,47.1,11.1z"/>
		<linearGradient id="SVGID_27_" gradientUnits="userSpaceOnUse" x1="46.9997" y1="13.8137" x2="49.9557" y2="13.8137">
			<stop  offset="0" style="stop-color:#C69C2C"/>
			<stop  offset="0.5521" style="stop-color:#C49B31"/>
			<stop  offset="0.8652" style="stop-color:#E6D25F"/>
			<stop  offset="0.9944" style="stop-color:#E7DB6F"/>
		</linearGradient>
		<path class="st26" d="M49.4,13.7L49.4,13.7l0.6,0.6l-0.1,0l-0.1-0.1c-0.1-0.1-0.1-0.1-0.2-0.1c0,0-0.1,0-0.2,0.1l-0.8,0.6
			c-0.2,0.1-0.4,0.2-0.5,0.3c-0.1,0-0.3,0-0.4,0c-0.2-0.1-0.3-0.2-0.4-0.4c-0.2-0.2-0.2-0.4-0.2-0.5c0-0.2,0-0.3,0.1-0.4
			c0.1-0.1,0.2-0.2,0.4-0.4l0.8-0.6c0.1-0.1,0.2-0.2,0.2-0.2c0-0.1,0-0.1-0.1-0.2l-0.1-0.1l0.1,0l0.6,0.8l-0.1,0L49,13.1
			c-0.1-0.1-0.1-0.1-0.2-0.1c-0.1,0-0.1,0-0.2,0.1l-0.8,0.6c-0.1,0.1-0.2,0.1-0.2,0.2c-0.1,0.1-0.1,0.2-0.2,0.2c0,0.1,0,0.2,0,0.3
			c0,0.1,0.1,0.2,0.1,0.3c0.1,0.1,0.2,0.2,0.3,0.3c0.1,0.1,0.2,0.1,0.4,0c0.1,0,0.3-0.1,0.5-0.3l0.8-0.6c0.1-0.1,0.2-0.2,0.2-0.2
			C49.5,13.9,49.5,13.9,49.4,13.7L49.4,13.7z"/>
		<linearGradient id="SVGID_28_" gradientUnits="userSpaceOnUse" x1="48.1601" y1="16.3093" x2="51.4296" y2="16.3093">
			<stop  offset="0" style="stop-color:#C69C2C"/>
			<stop  offset="0.5521" style="stop-color:#C49B31"/>
			<stop  offset="0.8652" style="stop-color:#E6D25F"/>
			<stop  offset="0.9944" style="stop-color:#E7DB6F"/>
		</linearGradient>
		<path class="st27" d="M50.2,14.8l0.3,0.6l-0.9,2.1l1.2-0.7c0.1-0.1,0.2-0.1,0.2-0.2c0-0.1,0-0.1,0-0.2l0-0.1l0.1,0l0.4,0.7l-0.1,0
			l0-0.1c0-0.1-0.1-0.1-0.2-0.1c0,0-0.1,0-0.2,0.1l-1.8,1l0-0.1l1-2.3l-1.3,0.7c-0.1,0.1-0.2,0.1-0.2,0.2c0,0.1,0,0.1,0,0.2l0,0.1
			l-0.1,0L48.2,16l0.1,0l0,0.1c0,0.1,0.1,0.1,0.2,0.1c0,0,0.1,0,0.2-0.1l1.5-0.8c0-0.1,0.1-0.2,0.1-0.2c0,0,0-0.1,0-0.2
			C50.2,14.9,50.2,14.8,50.2,14.8L50.2,14.8z"/>
		<linearGradient id="SVGID_29_" gradientUnits="userSpaceOnUse" x1="49.3984" y1="18.8939" x2="52.1436" y2="18.8939">
			<stop  offset="0" style="stop-color:#C69C2C"/>
			<stop  offset="0.5521" style="stop-color:#C49B31"/>
			<stop  offset="0.8652" style="stop-color:#E6D25F"/>
			<stop  offset="0.9944" style="stop-color:#E7DB6F"/>
		</linearGradient>
		<path class="st28" d="M49.4,18.3L49.4,18.3L49.4,18.3c0.1,0.2,0.2,0.2,0.3,0.2c0,0,0.1,0,0.3-0.1l1.5-0.5c0.1-0.1,0.2-0.1,0.3-0.1
			c0-0.1,0-0.1,0-0.2l0-0.1l0.1,0l0.3,0.9c0.1,0.3,0.2,0.6,0.1,0.8c0,0.2-0.1,0.4-0.2,0.6c-0.1,0.2-0.3,0.3-0.6,0.4
			c-0.3,0.1-0.6,0.1-0.9,0c-0.3-0.1-0.5-0.4-0.7-0.8L49.4,18.3z M49.8,18.9c0,0.1,0,0.3,0.1,0.4c0.1,0.3,0.3,0.4,0.5,0.5
			c0.2,0.1,0.5,0.1,0.8,0c0.3-0.1,0.5-0.3,0.7-0.5c0.1-0.2,0.1-0.5,0-0.7c0-0.1-0.1-0.2-0.2-0.3L49.8,18.9z"/>
		<linearGradient id="SVGID_30_" gradientUnits="userSpaceOnUse" x1="50.2633" y1="22.0474" x2="52.9245" y2="22.0474">
			<stop  offset="0" style="stop-color:#C69C2C"/>
			<stop  offset="0.5521" style="stop-color:#C49B31"/>
			<stop  offset="0.8652" style="stop-color:#E6D25F"/>
			<stop  offset="0.9944" style="stop-color:#E7DB6F"/>
		</linearGradient>
		<path class="st29" d="M51.4,22.2l-0.2-0.9l-0.4-0.1c-0.1,0-0.2,0-0.2,0c0,0-0.1,0-0.1,0.1c0,0,0,0.1,0,0.2l-0.1,0l-0.1-0.7l0.1,0
			c0,0.1,0.1,0.2,0.1,0.2c0.1,0,0.2,0.1,0.4,0.1l2.1,0.4l0,0.1l-1.8,1.2C51,22.9,50.9,23,50.8,23c0,0.1,0,0.1,0,0.2l-0.1,0l-0.2-0.9
			l0.1,0c0,0.1,0,0.1,0.1,0.2c0,0,0.1,0,0.1,0c0.1,0,0.1,0,0.2-0.1L51.4,22.2z M51.5,22.2l0.9-0.6l-1-0.2L51.5,22.2z"/>
		<linearGradient id="SVGID_31_" gradientUnits="userSpaceOnUse" x1="50.7262" y1="24.0118" x2="53.2337" y2="24.0118">
			<stop  offset="0" style="stop-color:#C69C2C"/>
			<stop  offset="0.5521" style="stop-color:#C49B31"/>
			<stop  offset="0.8652" style="stop-color:#E6D25F"/>
			<stop  offset="0.9944" style="stop-color:#E7DB6F"/>
		</linearGradient>
		<path class="st30" d="M53.2,24.9L52.7,25l0-0.1c0.1,0,0.2,0,0.2-0.1c0.1,0,0.1-0.1,0.1-0.2c0-0.1,0-0.1,0-0.2l0-0.3l-1.8,0.1
			c-0.1,0-0.2,0-0.3,0.1c0,0-0.1,0.1-0.1,0.2l0,0.1l-0.1,0l-0.1-1l0.1,0l0,0.1c0,0.1,0,0.2,0.1,0.2c0,0,0.1,0,0.3,0l1.8-0.1l0-0.3
			c0-0.1,0-0.2,0-0.2c0-0.1-0.1-0.1-0.1-0.1c-0.1,0-0.2-0.1-0.3-0.1l0-0.1l0.6,0L53.2,24.9z"/>
		<linearGradient id="SVGID_32_" gradientUnits="userSpaceOnUse" x1="50.7746" y1="25.9874" x2="53.2206" y2="25.9874">
			<stop  offset="0" style="stop-color:#C69C2C"/>
			<stop  offset="0.5521" style="stop-color:#C49B31"/>
			<stop  offset="0.8652" style="stop-color:#E6D25F"/>
			<stop  offset="0.9944" style="stop-color:#E7DB6F"/>
		</linearGradient>
		<path class="st31" d="M50.8,26.4L50.8,26.4l0-1l0.1,0l0,0.1c0,0.1,0,0.2,0.1,0.2c0,0,0.1,0,0.3,0.1l1.6,0.1c0.1,0,0.2,0,0.2,0
			c0,0,0.1,0,0.1-0.1c0,0,0-0.1,0-0.2l0-0.1l0.1,0l0,1l-0.1,0l0-0.1c0-0.1,0-0.2-0.1-0.2c0,0-0.1,0-0.3-0.1l-1.6-0.1
			c-0.1,0-0.2,0-0.2,0c0,0-0.1,0-0.1,0.1C50.9,26.3,50.8,26.3,50.8,26.4L50.8,26.4z"/>
		<linearGradient id="SVGID_33_" gradientUnits="userSpaceOnUse" x1="50.5469" y1="28.1075" x2="53.0666" y2="28.1075">
			<stop  offset="0" style="stop-color:#C69C2C"/>
			<stop  offset="0.5521" style="stop-color:#C49B31"/>
			<stop  offset="0.8652" style="stop-color:#E6D25F"/>
			<stop  offset="0.9944" style="stop-color:#E7DB6F"/>
		</linearGradient>
		<path class="st32" d="M53.1,28.3c0,0.3-0.2,0.5-0.5,0.7s-0.6,0.3-0.9,0.2c-0.4-0.1-0.6-0.2-0.9-0.5c-0.2-0.3-0.3-0.5-0.2-0.9
			c0-0.3,0.2-0.6,0.5-0.7c0.3-0.2,0.6-0.2,1-0.2c0.4,0.1,0.7,0.2,0.9,0.5C53,27.7,53.1,28,53.1,28.3z M52.9,28.3
			c0-0.2,0-0.4-0.2-0.5c-0.2-0.2-0.5-0.3-0.8-0.4c-0.4-0.1-0.7,0-0.9,0.1c-0.2,0.1-0.3,0.3-0.3,0.5c0,0.2,0,0.4,0.2,0.6
			c0.2,0.2,0.4,0.3,0.8,0.3c0.4,0.1,0.7,0,0.9-0.1C52.8,28.6,52.9,28.5,52.9,28.3z"/>
		<linearGradient id="SVGID_34_" gradientUnits="userSpaceOnUse" x1="49.7248" y1="30.9047" x2="52.7204" y2="30.9047">
			<stop  offset="0" style="stop-color:#C69C2C"/>
			<stop  offset="0.5521" style="stop-color:#C49B31"/>
			<stop  offset="0.8652" style="stop-color:#E6D25F"/>
			<stop  offset="0.9944" style="stop-color:#E7DB6F"/>
		</linearGradient>
		<path class="st33" d="M52.7,30l-0.2,0.6l-2.2,0.8l1.3,0.4c0.1,0,0.2,0.1,0.3,0c0.1,0,0.1-0.1,0.1-0.2l0-0.1l0.1,0L52,32.4l-0.1,0
			l0-0.1c0-0.1,0-0.2,0-0.2c0,0-0.1-0.1-0.2-0.1l-1.9-0.6l0-0.1l2.3-0.9L50.6,30c-0.1,0-0.2-0.1-0.3,0c-0.1,0-0.1,0.1-0.1,0.2l0,0.1
			l-0.1,0l0.2-0.8l0.1,0l0,0.1c0,0.1,0,0.2,0,0.2c0,0,0.1,0.1,0.2,0.1l1.6,0.5c0.1,0,0.2-0.1,0.2-0.1c0,0,0.1-0.1,0.1-0.1
			C52.6,30.1,52.6,30,52.7,30L52.7,30z"/>
	</g>
	<g>
		<linearGradient id="SVGID_35_" gradientUnits="userSpaceOnUse" x1="18.8564" y1="24.693" x2="49.9339" y2="24.693">
			<stop  offset="0" style="stop-color:#C69C2C"/>
			<stop  offset="0.5521" style="stop-color:#C49B31"/>
			<stop  offset="0.8652" style="stop-color:#E6D25F"/>
			<stop  offset="0.9944" style="stop-color:#E7DB6F"/>
		</linearGradient>
		<path class="st34" d="M34.4,40.2c-8.6,0-15.5-7-15.5-15.5c0-8.6,7-15.5,15.5-15.5s15.5,7,15.5,15.5C49.9,33.3,43,40.2,34.4,40.2z
			 M34.4,9.3C25.9,9.3,19,16.2,19,24.7s6.9,15.4,15.4,15.4s15.4-6.9,15.4-15.4S42.9,9.3,34.4,9.3z"/>
	</g>
	<linearGradient id="SVGID_36_" gradientUnits="userSpaceOnUse" x1="47.225" y1="24.8746" x2="48.0433" y2="24.8746">
		<stop  offset="0" style="stop-color:#C69C2C"/>
		<stop  offset="0.5521" style="stop-color:#C49B31"/>
		<stop  offset="0.8652" style="stop-color:#E6D25F"/>
		<stop  offset="0.9944" style="stop-color:#E7DB6F"/>
	</linearGradient>
	<path class="st35" d="M47.3,20.5c0.3,0.7,0.4,1.4,0.6,2.1c0.1,0.7,0.2,1.5,0.2,2.2c0,0.7-0.1,1.5-0.2,2.2c-0.1,0.4-0.2,0.7-0.3,1.1
		c-0.1,0.4-0.2,0.7-0.4,1c0.1-0.4,0.2-0.7,0.3-1.1c0.1-0.4,0.2-0.7,0.2-1.1c0.1-0.7,0.2-1.5,0.2-2.2c0-0.7,0-1.5-0.1-2.2
		C47.7,22,47.5,21.3,47.3,20.5z"/>
	<linearGradient id="SVGID_37_" gradientUnits="userSpaceOnUse" x1="21.1563" y1="24.8746" x2="21.9747" y2="24.8746">
		<stop  offset="0" style="stop-color:#C69C2C"/>
		<stop  offset="0.5521" style="stop-color:#C49B31"/>
		<stop  offset="0.8652" style="stop-color:#E6D25F"/>
		<stop  offset="0.9944" style="stop-color:#E7DB6F"/>
	</linearGradient>
	<path class="st36" d="M22,29.2c-0.3-0.7-0.5-1.4-0.6-2.1c-0.1-0.7-0.2-1.5-0.2-2.2c0-0.7,0.1-1.5,0.2-2.2c0.1-0.4,0.1-0.7,0.2-1.1
		c0.1-0.4,0.2-0.7,0.3-1.1c-0.1,0.4-0.2,0.7-0.3,1.1c-0.1,0.4-0.1,0.7-0.2,1.1c-0.1,0.7-0.2,1.5-0.1,2.2c0,0.7,0.1,1.5,0.2,2.2
		C21.6,27.8,21.8,28.5,22,29.2z"/>
	<g>
		<linearGradient id="SVGID_38_" gradientUnits="userSpaceOnUse" x1="19.9073" y1="36.7056" x2="22.6596" y2="36.7056">
			<stop  offset="0" style="stop-color:#C69C2C"/>
			<stop  offset="0.5521" style="stop-color:#C49B31"/>
			<stop  offset="0.8652" style="stop-color:#E6D25F"/>
			<stop  offset="0.9944" style="stop-color:#E7DB6F"/>
		</linearGradient>
		<path class="st37" d="M22.7,36.5l-0.6,0.6l0,0c0.1-0.2,0.2-0.4,0.2-0.6c0-0.2-0.1-0.3-0.2-0.5c-0.1-0.1-0.2-0.2-0.4-0.2
			c-0.1,0-0.3,0-0.5,0c-0.2,0.1-0.4,0.2-0.6,0.4c-0.2,0.1-0.3,0.3-0.4,0.5c-0.1,0.2-0.1,0.3-0.1,0.5c0,0.2,0.1,0.3,0.2,0.4
			c0.1,0.1,0.2,0.2,0.3,0.2c0.1,0,0.3,0.1,0.6,0l0,0.1c-0.2,0.1-0.4,0.1-0.6,0c-0.2-0.1-0.3-0.2-0.5-0.3c-0.3-0.3-0.3-0.6-0.3-1
			c0.1-0.3,0.2-0.5,0.4-0.7c0.2-0.2,0.4-0.3,0.6-0.3c0.2-0.1,0.4,0,0.6,0c0.2,0.1,0.4,0.2,0.5,0.3c0.1,0.1,0.2,0.3,0.2,0.5
			c0,0.1,0,0.1,0,0.1c0,0,0,0,0.1,0C22.5,36.5,22.6,36.5,22.7,36.5L22.7,36.5z"/>
		<linearGradient id="SVGID_39_" gradientUnits="userSpaceOnUse" x1="21.3184" y1="38.5331" x2="24.7177" y2="38.5331">
			<stop  offset="0" style="stop-color:#C69C2C"/>
			<stop  offset="0.5521" style="stop-color:#C49B31"/>
			<stop  offset="0.8652" style="stop-color:#E6D25F"/>
			<stop  offset="0.9944" style="stop-color:#E7DB6F"/>
		</linearGradient>
		<path class="st38" d="M22.7,38.1l0.8,0.7l0.4-0.5c0.1-0.1,0.1-0.2,0.1-0.2c0,0,0-0.1,0-0.1c0-0.1-0.1-0.1-0.1-0.1l-0.1-0.1l0-0.1
			l0.8,0.6l0,0.1l-0.1-0.1c0,0-0.1-0.1-0.1-0.1c0,0-0.1,0-0.1,0c0,0-0.1,0.1-0.2,0.2l-1,1.2c-0.1,0.1-0.1,0.2-0.1,0.2
			c0,0,0,0.1,0,0.1c0,0.1,0.1,0.1,0.1,0.1l0.1,0.1l0,0.1l-0.8-0.6l0-0.1l0.1,0.1c0.1,0.1,0.1,0.1,0.2,0.1c0,0,0.1-0.1,0.2-0.2
			l0.5-0.6l-0.8-0.7l-0.5,0.6C22,38.9,22,38.9,22,39c0,0,0,0.1,0,0.1c0,0.1,0,0.1,0.1,0.1l0.1,0.1l0,0.1l-0.8-0.6l0-0.1l0.1,0.1
			c0.1,0.1,0.1,0.1,0.2,0.1c0,0,0.1-0.1,0.2-0.2l1-1.2c0.1-0.1,0.1-0.2,0.1-0.2c0,0,0-0.1,0-0.1c0-0.1-0.1-0.1-0.1-0.1l-0.1-0.1
			l0-0.1l0.8,0.6l0,0.1l-0.1-0.1c0,0-0.1-0.1-0.1-0.1c0,0-0.1,0-0.1,0c0,0-0.1,0.1-0.2,0.2L22.7,38.1z"/>
		<linearGradient id="SVGID_40_" gradientUnits="userSpaceOnUse" x1="23.6167" y1="40.4535" x2="25.9734" y2="40.4535">
			<stop  offset="0" style="stop-color:#C69C2C"/>
			<stop  offset="0.5521" style="stop-color:#C49B31"/>
			<stop  offset="0.8652" style="stop-color:#E6D25F"/>
			<stop  offset="0.9944" style="stop-color:#E7DB6F"/>
		</linearGradient>
		<path class="st39" d="M25.4,40.7l-0.8-0.5l-0.3,0.2c-0.1,0.1-0.1,0.1-0.2,0.1c0,0,0,0.1,0,0.1c0,0,0.1,0.1,0.2,0.2l0,0.1l-0.6-0.4
			l0-0.1c0.1,0,0.2,0,0.2,0c0.1,0,0.2-0.1,0.3-0.2l1.7-1.3l0.1,0l-0.3,2.1c0,0.2,0,0.3,0,0.4c0,0.1,0.1,0.1,0.1,0.2l0,0.1L25,41.4
			l0-0.1c0.1,0,0.1,0.1,0.2,0.1c0,0,0.1,0,0.1-0.1c0,0,0-0.1,0.1-0.2L25.4,40.7z M25.4,40.5l0.2-1l-0.9,0.6L25.4,40.5z"/>
		<linearGradient id="SVGID_41_" gradientUnits="userSpaceOnUse" x1="26.2629" y1="41.3605" x2="29.4018" y2="41.3605">
			<stop  offset="0" style="stop-color:#C69C2C"/>
			<stop  offset="0.5521" style="stop-color:#C49B31"/>
			<stop  offset="0.8652" style="stop-color:#E6D25F"/>
			<stop  offset="0.9944" style="stop-color:#E7DB6F"/>
		</linearGradient>
		<path class="st40" d="M27,39.8l0.6,0.2l0.6,2.2l0.5-1.3c0.1-0.1,0.1-0.2,0.1-0.3c0-0.1-0.1-0.1-0.2-0.1l-0.1,0l0-0.1l0.8,0.3
			l0,0.1l-0.1,0c-0.1,0-0.2,0-0.2,0c0,0-0.1,0.1-0.1,0.2l-0.8,1.9l-0.1,0l-0.7-2.4l-0.6,1.4c-0.1,0.1-0.1,0.2-0.1,0.3
			c0,0.1,0.1,0.1,0.2,0.1l0.1,0l0,0.1l-0.8-0.3l0-0.1l0.1,0c0.1,0,0.2,0,0.2,0c0,0,0.1-0.1,0.1-0.2l0.6-1.6c0-0.1-0.1-0.2-0.1-0.2
			c0,0-0.1-0.1-0.1-0.1C27.1,39.9,27.1,39.9,27,39.8L27,39.8z"/>
		<linearGradient id="SVGID_42_" gradientUnits="userSpaceOnUse" x1="29.3344" y1="42.2914" x2="31.7125" y2="42.2914">
			<stop  offset="0" style="stop-color:#C69C2C"/>
			<stop  offset="0.5521" style="stop-color:#C49B31"/>
			<stop  offset="0.8652" style="stop-color:#E6D25F"/>
			<stop  offset="0.9944" style="stop-color:#E7DB6F"/>
		</linearGradient>
		<path class="st41" d="M31.6,41.2L31.5,42l-0.1,0c0-0.2-0.1-0.4-0.1-0.5c-0.1-0.2-0.3-0.3-0.5-0.3c-0.3-0.1-0.5,0-0.7,0.2
			c-0.2,0.2-0.3,0.4-0.4,0.7c-0.1,0.2-0.1,0.4,0,0.6c0,0.2,0.1,0.4,0.2,0.5c0.1,0.1,0.2,0.2,0.4,0.2c0.1,0,0.2,0,0.3,0
			c0.1,0,0.2,0,0.2,0l0.2-0.7c0-0.1,0-0.2,0-0.2c0,0,0-0.1-0.1-0.1c0,0-0.1-0.1-0.2-0.1l0-0.1l0.9,0.2l0,0.1l0,0c-0.1,0-0.2,0-0.2,0
			c0,0-0.1,0.1-0.1,0.2l-0.2,0.7c-0.1,0-0.3,0.1-0.4,0.1c-0.1,0-0.3,0-0.4,0c-0.4-0.1-0.7-0.3-0.9-0.7c-0.1-0.3-0.1-0.5-0.1-0.8
			c0-0.2,0.1-0.4,0.3-0.6c0.2-0.2,0.4-0.3,0.6-0.4c0.2-0.1,0.4-0.1,0.6,0c0.1,0,0.2,0,0.2,0.1c0.1,0,0.2,0.1,0.3,0.2
			c0.1,0,0.1,0.1,0.1,0.1c0,0,0,0,0.1,0C31.5,41.3,31.6,41.3,31.6,41.2L31.6,41.2z"/>
		<linearGradient id="SVGID_43_" gradientUnits="userSpaceOnUse" x1="31.9534" y1="42.6068" x2="33.2022" y2="42.6068">
			<stop  offset="0" style="stop-color:#C69C2C"/>
			<stop  offset="0.5521" style="stop-color:#C49B31"/>
			<stop  offset="0.8652" style="stop-color:#E6D25F"/>
			<stop  offset="0.9944" style="stop-color:#E7DB6F"/>
		</linearGradient>
		<path class="st42" d="M33,43.8L33,43.8l-1,0l0-0.1l0.1,0c0.1,0,0.2,0,0.2-0.1c0,0,0.1-0.1,0.1-0.3l0.2-1.6c0-0.1,0-0.2,0-0.2
			c0,0,0-0.1-0.1-0.1c0,0-0.1-0.1-0.2-0.1l-0.1,0l0-0.1l1,0.1l0,0.1l-0.1,0c-0.1,0-0.2,0-0.2,0.1c0,0-0.1,0.1-0.1,0.3l-0.2,1.6
			c0,0.1,0,0.2,0,0.2c0,0,0,0.1,0.1,0.1C32.8,43.8,32.8,43.8,33,43.8L33,43.8z"/>
		<linearGradient id="SVGID_44_" gradientUnits="userSpaceOnUse" x1="33.3461" y1="42.7158" x2="35.8872" y2="42.7158">
			<stop  offset="0" style="stop-color:#C69C2C"/>
			<stop  offset="0.5521" style="stop-color:#C49B31"/>
			<stop  offset="0.8652" style="stop-color:#E6D25F"/>
			<stop  offset="0.9944" style="stop-color:#E7DB6F"/>
		</linearGradient>
		<path class="st43" d="M33.3,41.5l0.6,0l1.4,1.8l0-1.4c0-0.1,0-0.2-0.1-0.3c0,0-0.1-0.1-0.2-0.1l-0.1,0l0-0.1l0.8,0l0,0.1l-0.1,0
			c-0.1,0-0.2,0-0.2,0.1c0,0,0,0.1,0,0.3l0,2l-0.1,0L34,42l0,1.5c0,0.1,0,0.2,0,0.3c0,0,0.1,0.1,0.2,0.1l0.1,0l0,0.1l-0.8,0l0-0.1
			l0.1,0c0.1,0,0.2,0,0.2-0.1c0,0,0-0.1,0-0.3l0-1.7c-0.1-0.1-0.1-0.1-0.2-0.2c0,0-0.1,0-0.2-0.1C33.5,41.6,33.4,41.6,33.3,41.5
			L33.3,41.5z"/>
		<linearGradient id="SVGID_45_" gradientUnits="userSpaceOnUse" x1="36.3268" y1="42.3831" x2="38.669" y2="42.3831">
			<stop  offset="0" style="stop-color:#C69C2C"/>
			<stop  offset="0.5521" style="stop-color:#C49B31"/>
			<stop  offset="0.8652" style="stop-color:#E6D25F"/>
			<stop  offset="0.9944" style="stop-color:#E7DB6F"/>
		</linearGradient>
		<path class="st44" d="M38.1,41.1l0.2,0.7l-0.1,0c-0.1-0.2-0.2-0.3-0.3-0.4c-0.2-0.1-0.3-0.2-0.6-0.1c-0.3,0-0.5,0.2-0.6,0.5
			c-0.1,0.2-0.1,0.5-0.1,0.8c0,0.2,0.1,0.4,0.2,0.6c0.1,0.2,0.3,0.3,0.4,0.4c0.2,0.1,0.3,0.1,0.4,0.1c0.1,0,0.2,0,0.2-0.1
			c0.1,0,0.1-0.1,0.2-0.1l-0.1-0.7c0-0.1,0-0.2-0.1-0.2c0,0-0.1-0.1-0.1-0.1c0,0-0.1,0-0.2,0l0-0.1l0.9-0.2l0,0.1l0,0
			c-0.1,0-0.1,0.1-0.2,0.1c0,0,0,0.1,0,0.3l0.1,0.7c-0.1,0.1-0.2,0.2-0.4,0.2c-0.1,0.1-0.3,0.1-0.4,0.1c-0.4,0.1-0.8,0-1.1-0.3
			c-0.2-0.2-0.3-0.4-0.4-0.7c0-0.2,0-0.4,0-0.6c0.1-0.2,0.2-0.5,0.4-0.6c0.2-0.1,0.3-0.2,0.6-0.3c0.1,0,0.2,0,0.2,0
			c0.1,0,0.2,0,0.3,0c0.1,0,0.1,0,0.1,0c0,0,0,0,0,0C38.1,41.2,38.1,41.1,38.1,41.1L38.1,41.1z"/>
		<linearGradient id="SVGID_46_" gradientUnits="userSpaceOnUse" x1="39.6714" y1="41.627" x2="42.2434" y2="41.627">
			<stop  offset="0" style="stop-color:#C69C2C"/>
			<stop  offset="0.5521" style="stop-color:#C49B31"/>
			<stop  offset="0.8652" style="stop-color:#E6D25F"/>
			<stop  offset="0.9944" style="stop-color:#E7DB6F"/>
		</linearGradient>
		<path class="st45" d="M42.1,41.6L42.1,41.6l0.1,0.7l-1.7,0.7l0-0.1l0.1,0c0.1,0,0.1-0.1,0.2-0.2c0,0,0-0.1-0.1-0.3L40.1,41
			c-0.1-0.1-0.1-0.2-0.1-0.2c-0.1,0-0.1,0-0.2,0l-0.1,0l0-0.1l1-0.4l0,0.1c-0.1,0-0.2,0.1-0.2,0.1c0,0-0.1,0.1-0.1,0.1
			c0,0,0,0.1,0.1,0.3l0.6,1.4c0,0.1,0.1,0.2,0.1,0.2c0,0,0,0,0.1,0c0,0,0.1,0,0.3-0.1l0.2-0.1c0.2-0.1,0.3-0.1,0.3-0.2
			s0.1-0.1,0.1-0.2S42.1,41.8,42.1,41.6z"/>
		<linearGradient id="SVGID_47_" gradientUnits="userSpaceOnUse" x1="41.7793" y1="40.6481" x2="43.7924" y2="40.6481">
			<stop  offset="0" style="stop-color:#C69C2C"/>
			<stop  offset="0.5521" style="stop-color:#C49B31"/>
			<stop  offset="0.8652" style="stop-color:#E6D25F"/>
			<stop  offset="0.9944" style="stop-color:#E7DB6F"/>
		</linearGradient>
		<path class="st46" d="M43.8,41.4L43.8,41.4l-0.9,0.5l0-0.1l0.1,0c0.1,0,0.1-0.1,0.1-0.2c0,0,0-0.1-0.1-0.3L42.3,40
			c-0.1-0.1-0.1-0.2-0.1-0.2c0,0-0.1,0-0.1,0c-0.1,0-0.1,0-0.2,0l-0.1,0l0-0.1l0.9-0.5l0,0.1l-0.1,0c-0.1,0-0.1,0.1-0.1,0.2
			c0,0,0,0.1,0.1,0.3l0.7,1.4c0.1,0.1,0.1,0.2,0.1,0.2c0,0,0.1,0,0.1,0C43.6,41.5,43.6,41.5,43.8,41.4L43.8,41.4z"/>
		<linearGradient id="SVGID_48_" gradientUnits="userSpaceOnUse" x1="42.8835" y1="39.2222" x2="45.3641" y2="39.2222">
			<stop  offset="0" style="stop-color:#C69C2C"/>
			<stop  offset="0.5521" style="stop-color:#C49B31"/>
			<stop  offset="0.8652" style="stop-color:#E6D25F"/>
			<stop  offset="0.9944" style="stop-color:#E7DB6F"/>
		</linearGradient>
		<path class="st47" d="M44.9,37.9L44.9,37.9c0,0.1-0.1,0.2-0.1,0.2c0,0.1,0,0.2,0,0.3l0.5,2.2l-0.1,0l-1.9-1.2
			c-0.1-0.1-0.2-0.1-0.2-0.1c0,0-0.1,0-0.1,0c0,0-0.1,0-0.2,0.1l0-0.1l0.8-0.5l0,0.1c-0.1,0.1-0.1,0.1-0.1,0.2c0,0,0,0.1,0,0.1
			c0,0,0.1,0.1,0.2,0.2l1.3,0.8l-0.3-1.5c0-0.1-0.1-0.2-0.1-0.3c0,0-0.1,0-0.1-0.1c0,0-0.1,0-0.2,0c0,0,0,0,0,0l0-0.1L44.9,37.9z"/>
		<linearGradient id="SVGID_49_" gradientUnits="userSpaceOnUse" x1="45.0613" y1="37.9872" x2="48.0227" y2="37.9872">
			<stop  offset="0" style="stop-color:#C69C2C"/>
			<stop  offset="0.5521" style="stop-color:#C49B31"/>
			<stop  offset="0.8652" style="stop-color:#E6D25F"/>
			<stop  offset="0.9944" style="stop-color:#E7DB6F"/>
		</linearGradient>
		<path class="st48" d="M45.6,37.4l0.7,0.7l0.4-0.3c0.1-0.1,0.1-0.2,0.2-0.2c0-0.1,0-0.2-0.1-0.3l0,0l0.6,0.6l0,0
			c-0.1-0.1-0.2-0.1-0.2-0.1c0,0-0.1,0-0.1,0c-0.1,0-0.1,0.1-0.2,0.1l-0.4,0.3l0.5,0.6c0.1,0.1,0.1,0.1,0.1,0.1c0,0,0,0,0.1,0
			c0,0,0.1,0,0.1-0.1l0.3-0.3c0.1-0.1,0.2-0.2,0.2-0.2c0-0.1,0-0.1,0-0.2c0-0.1,0-0.2-0.1-0.4l0.1,0l0.3,0.6l-1.3,1.2l0,0l0.1-0.1
			c0,0,0.1-0.1,0.1-0.1c0,0,0-0.1,0-0.1c0,0-0.1-0.1-0.1-0.2l-1.1-1.1c-0.1-0.1-0.2-0.2-0.2-0.2c-0.1,0-0.1,0-0.2,0.1l-0.1,0.1l0,0
			l1.3-1.2l0.4,0.4l0,0c-0.1-0.1-0.2-0.1-0.2-0.1c-0.1,0-0.1,0-0.2,0c0,0-0.1,0.1-0.2,0.1L45.6,37.4z"/>
		<linearGradient id="SVGID_50_" gradientUnits="userSpaceOnUse" x1="47.0116" y1="36.2702" x2="49.398" y2="36.2702">
			<stop  offset="0" style="stop-color:#C69C2C"/>
			<stop  offset="0.5521" style="stop-color:#C49B31"/>
			<stop  offset="0.8652" style="stop-color:#E6D25F"/>
			<stop  offset="0.9944" style="stop-color:#E7DB6F"/>
		</linearGradient>
		<path class="st49" d="M47.6,34.9l0.6,0.5l0,0c-0.1-0.1-0.3-0.1-0.4-0.2c-0.1,0-0.2,0-0.3,0c-0.1,0-0.2,0.1-0.3,0.2
			c-0.1,0.1-0.1,0.2-0.1,0.3c0,0.1,0,0.2,0.1,0.3c0.1,0,0.1,0.1,0.2,0.1c0.1,0,0.3-0.1,0.6-0.2c0.2-0.1,0.4-0.1,0.5-0.2
			c0.1,0,0.2,0,0.3,0c0.1,0,0.2,0.1,0.3,0.1c0.1,0.1,0.2,0.3,0.2,0.5c0,0.2,0,0.4-0.2,0.5c0,0.1-0.1,0.1-0.1,0.1
			c0,0-0.1,0.1-0.2,0.1c-0.1,0.1-0.2,0.1-0.2,0.1c0,0,0,0,0,0.1c0,0,0,0.1,0.1,0.1l0,0l-0.6-0.5l0,0c0.2,0.1,0.3,0.1,0.4,0.2
			c0.1,0,0.2,0,0.3,0c0.1,0,0.2-0.1,0.3-0.2c0.1-0.1,0.1-0.2,0.1-0.3c0-0.1-0.1-0.2-0.1-0.3c0,0-0.1-0.1-0.2-0.1c-0.1,0-0.1,0-0.2,0
			c-0.1,0-0.2,0.1-0.4,0.1c-0.2,0.1-0.4,0.1-0.5,0.2c-0.1,0-0.2,0-0.3,0c-0.1,0-0.2-0.1-0.3-0.1C47.1,36.3,47,36.2,47,36
			c0-0.2,0-0.3,0.2-0.5c0.1-0.1,0.2-0.2,0.3-0.2c0.1,0,0.1-0.1,0.1-0.1c0,0,0,0,0-0.1C47.6,35.1,47.6,35,47.6,34.9L47.6,34.9z"/>
	</g>
	<g>
		<linearGradient id="SVGID_51_" gradientUnits="userSpaceOnUse" x1="13.9475" y1="24.766" x2="54.9887" y2="24.766">
			<stop  offset="0" style="stop-color:#C69C2C"/>
			<stop  offset="0.5521" style="stop-color:#C49B31"/>
			<stop  offset="0.8652" style="stop-color:#E6D25F"/>
			<stop  offset="0.9944" style="stop-color:#E7DB6F"/>
		</linearGradient>
		<path class="st50" d="M34.5,45.3c-11.3,0-20.5-9.2-20.5-20.5S23.2,4.2,34.5,4.2S55,13.5,55,24.8S45.8,45.3,34.5,45.3z M34.5,4.7
			c-11.1,0-20.1,9-20.1,20.1s9,20.1,20.1,20.1s20.1-9,20.1-20.1S45.5,4.7,34.5,4.7z"/>
	</g>
	<g>
		<linearGradient id="SVGID_52_" gradientUnits="userSpaceOnUse" x1="13.4195" y1="24.766" x2="55.5166" y2="24.766">
			<stop  offset="0" style="stop-color:#C69C2C"/>
			<stop  offset="0.5521" style="stop-color:#C49B31"/>
			<stop  offset="0.8652" style="stop-color:#E6D25F"/>
			<stop  offset="0.9944" style="stop-color:#E7DB6F"/>
		</linearGradient>
		<path class="st51" d="M34.5,45.8c-11.6,0-21-9.4-21-21s9.4-21,21-21s21,9.4,21,21S46.1,45.8,34.5,45.8z M34.5,3.9
			c-11.5,0-20.9,9.4-20.9,20.9s9.4,20.9,20.9,20.9s20.9-9.4,20.9-20.9S46,3.9,34.5,3.9z"/>
	</g>
	<linearGradient id="SVGID_53_" gradientUnits="userSpaceOnUse" x1="23.4973" y1="22.3353" x2="45.5522" y2="22.3353">
		<stop  offset="0" style="stop-color:#C69C2C"/>
		<stop  offset="0.5521" style="stop-color:#C49B31"/>
		<stop  offset="0.8652" style="stop-color:#E6D25F"/>
		<stop  offset="0.9944" style="stop-color:#E7DB6F"/>
	</linearGradient>
	<path class="st52" d="M45.6,15.3C44.4,16,43.3,16.6,42,17c-1.2,0.4-2.5,0.7-3.8,1c-0.3,0-0.3,0.2-0.3,0.4c-0.2,0.9-0.8,1.5-1.6,1.9
		c-0.3,0.2-0.5,0.1-0.5-0.3c-0.1-0.4-0.2-0.8-0.2-1.2c0-0.2,0-0.4,0.3-0.4c0.2,0.1,0.2-0.1,0.1-0.2c0-0.2-0.2-0.4-0.4-0.4
		c-0.3,0-0.5-0.1-0.7-0.1c-0.6-0.1-0.8,0-1,0.6c-0.2,0.5-0.4,1.1-0.5,1.7c-0.1,0.4-0.2,0.4-0.5,0.2c-0.8-0.4-1.4-1-1.6-1.8
		c-0.1-0.4-0.3-0.4-0.6-0.5c-2.1-0.4-4.2-1-6.1-2c-0.3-0.2-0.7-0.4-1-0.6c0.2,1.3,0.6,2.6,2.3,2.8c0.1,0,0.2,0,0.3,0.1l0,0
		c0.4,0.1,0.8,0.2,1.2,0.3c0,0,0,0,0,0c0.1,0,0.2,0,0.2,0c0.1,0,0.1,0,0.2,0c0.2,0,0.4,0.1,0.7,0.1c-0.3,0-0.5,0.1-0.7,0
		c-0.1,0-0.1,0-0.2,0c0,0,0,0,0,0c-0.4,0-0.7,0-1.1,0c0,0,0,0,0,0c-0.1,0-0.2,0-0.3,0c0,0,0,0-0.1,0c-0.1,0-0.1,0-0.2,0
		c-0.1,0-0.1,0-0.2,0c-0.4,0-0.8-0.1-1.2-0.1c0.2,0.5,0.4,0.9,0.8,1.3c0.3,0.4,0.7,0.6,1.2,0.5c0.6,0,1.2,0,1.8,0
		c0.2-0.1,0.4,0,0.6,0c-0.2,0.1-0.4,0.2-0.6,0.2c-0.8,0.2-1.6,0.2-2.4,0.4c0.5,0.6,1.1,1.1,1.9,1.3c0.8,0.2,1.4-0.3,2.3-0.5
		c-0.5,0.6-1,0.8-1.5,1.2c0.9,0.4,1.8,0.8,2.8,0.1c-0.1,0.5-0.4,0.6-0.6,0.9c0.5,0,1,0.2,1.4-0.1c0.1-0.2,0.2-0.4,0.4-0.6
		c0,0.3-0.1,0.5-0.2,0.7c0.2,0.3,0.4,0,0.7,0.1c-0.1,0.3-0.3,0.5-0.5,0.7c-0.2,0.2,0,0.1,0.1,0.1c0.1,0,0.1,0,0.1,0.1
		c0,0.1,0,0.2-0.1,0.3c0.1,0,0.1,0,0.2,0c0.1,0,0.1-0.3,0.2-0.1c0.2,0.4,0.2-0.1,0.4,0c-0.1,0.9-0.6,1.6-1.2,2.3
		c0.5,0.1,0.8-0.1,1.1-0.3c0,0.4-0.2,0.9,0.1,1.3c0.4-0.2,0.6-0.6,0.8-1c0.1,0.7,0.1,1.3,0.5,1.9c0.4-0.6,0.4-1.2,0.5-1.9
		c0.4,0.7,0.4,0.7,0.8,0.9c0.2-0.4,0-0.8,0-1.3c0.4,0.3,0.7,0.4,1.2,0.3c-0.8-0.7-1.1-1.6-1.3-2.6c0.2,0,0.2,0.1,0.3,0.2
		c0,0.1,0.1,0.2,0.1,0.1c0.4-0.4,0.3,0.2,0.4,0.2c0,0,0.1-0.1,0.1-0.1c0.2-0.6-0.2-0.9-0.4-1.3c0.2-0.1,0.7,0.3,0.6-0.3
		c0.5,0.4,1,0.2,1.6,0.2c-0.3-0.3-0.5-0.6-0.7-0.8c0,0,0-0.1,0-0.1c1,0.7,1.9,0.3,2.8-0.1c-0.6-0.4-1.1-0.7-1.6-1.2
		c0.8,0.1,1.5,0.7,2.3,0.5c0.8-0.2,1.4-0.6,1.9-1.3c-1.1-0.1-2.1-0.2-3.2-0.6c0.5,0,0.8,0,1.2,0c0.4,0,0.8,0,1.2,0
		c1,0,1.9-0.8,2.1-1.8c-0.5,0.1-1,0.1-1.6,0.2c-0.5,0-1.1,0-1.6,0c0.7-0.2,1.5-0.3,2.2-0.6C44.8,17.8,45.6,16.6,45.6,15.3z
		 M34.7,18.7c-0.1,0-0.2-0.1-0.2-0.2c0-0.1,0.1-0.2,0.2-0.2c0.1,0,0.2,0.1,0.2,0.2C34.9,18.6,34.8,18.7,34.7,18.7z"/>
	<g>
		<linearGradient id="SVGID_54_" gradientUnits="userSpaceOnUse" x1="34.4722" y1="34.6415" x2="42.837" y2="34.6415">
			<stop  offset="0" style="stop-color:#C69C2C"/>
			<stop  offset="0.5521" style="stop-color:#C49B31"/>
			<stop  offset="0.8652" style="stop-color:#E6D25F"/>
			<stop  offset="0.9944" style="stop-color:#E7DB6F"/>
		</linearGradient>
		<path class="st53" d="M42.7,29.5c-0.1,0-0.2,0.1-0.3,0.2c0,0,0,0.1,0,0.1c-0.2,0.5-0.4,1-0.7,1.5c-0.6,0.9-1.4,1.7-2.4,2.1
			c0,0-0.1,0-0.1,0c-0.6,0.3-1.3,0.4-2,0.4c0.4-0.3,0.7-0.6,1-0.9c0.4-0.5,0.7-1,0.7-1.6c0-0.1,0-0.2-0.1-0.2c-0.1-0.1-0.2,0-0.2,0
			c-0.6,0.4-1.2,0.7-1.9,1c-0.3,0.2-0.6,0.4-0.8,0.7c-1.4,1.8-1.7,3.8-0.9,5.9c0.1,0.3,0.3,0.6,0.5,1c0.1-0.4,0.3-0.8,0.6-1.1
			c0.5-0.6,1.1-1.1,1.7-1.6c1-0.7,2-1.4,3.1-1.9c0.4-0.2,0.8-0.6,1-1c0.6-0.9,0.9-1.8,1-2.8c0.1-0.5,0.1-1,0.1-1.5
			C42.8,29.7,42.8,29.6,42.7,29.5z"/>
		<linearGradient id="SVGID_55_" gradientUnits="userSpaceOnUse" x1="25.8484" y1="34.6251" x2="34.2193" y2="34.6251">
			<stop  offset="0" style="stop-color:#C69C2C"/>
			<stop  offset="0.5521" style="stop-color:#C49B31"/>
			<stop  offset="0.8652" style="stop-color:#E6D25F"/>
			<stop  offset="0.9944" style="stop-color:#E7DB6F"/>
		</linearGradient>
		<path class="st54" d="M32.1,32.2c-0.7-0.3-1.3-0.6-1.9-1c-0.1-0.1-0.2-0.1-0.2,0c-0.1,0.1-0.1,0.1-0.1,0.2c0,0.3,0.1,0.6,0.2,0.9
			c0.3,0.6,0.8,1.1,1.3,1.5c0,0,0.1,0.1,0.1,0.1c-0.7,0-1.3-0.1-1.9-0.4c-0.2-0.1-0.5-0.2-0.7-0.3c-0.6-0.3-1-0.7-1.4-1.2
			c-0.6-0.7-0.9-1.4-1.2-2.3c0-0.1-0.1-0.2-0.3-0.2c-0.1,0-0.2,0.1-0.2,0.3c0,1.1,0.2,2.1,0.5,3.1c0.4,1.1,1,1.9,2.1,2.5
			c1.2,0.6,2.3,1.3,3.3,2.2c0.7,0.6,1.3,1.2,1.6,2.1c0.1,0,0.1-0.1,0.1-0.1c1.1-2.1,1-4.1-0.1-6.1C33,33,32.7,32.5,32.1,32.2z"/>
		<linearGradient id="SVGID_56_" gradientUnits="userSpaceOnUse" x1="26.5485" y1="31.4078" x2="29.396" y2="31.4078">
			<stop  offset="0" style="stop-color:#C69C2C"/>
			<stop  offset="0.5521" style="stop-color:#C49B31"/>
			<stop  offset="0.8652" style="stop-color:#E6D25F"/>
			<stop  offset="0.9944" style="stop-color:#E7DB6F"/>
		</linearGradient>
		<path class="st55" d="M29,33.2c0.1,0,0.1,0.1,0.2,0.1c0,0,0,0,0,0c0,0,0.1,0.1,0.2,0.1c-0.1,0-0.1-0.1-0.2-0.1
			c-0.1-0.1-0.2-0.2-0.3-0.3c-0.1,0-0.1-0.1-0.1-0.1c-0.1,0-0.1-0.1-0.1-0.1c0,0-0.1,0-0.1-0.1c-0.1,0-0.1,0-0.1-0.1
			c-0.1,0-0.1-0.1-0.1-0.1c-0.1,0-0.1-0.1-0.1-0.2c0,0,0,0,0-0.1c-0.2-0.2-0.3-0.4-0.4-0.7c-0.2-0.4-0.4-0.7-0.5-1.1
			c-0.1-0.2-0.2-0.5-0.3-0.7c-0.1-0.1-0.2-0.2-0.3-0.1c-0.1,0.1-0.1,0.2-0.1,0.3C27,31.2,27.7,32.4,29,33.2z"/>
		<linearGradient id="SVGID_57_" gradientUnits="userSpaceOnUse" x1="28.9145" y1="32.943" x2="28.9159" y2="32.943">
			<stop  offset="0" style="stop-color:#C69C2C"/>
			<stop  offset="0.5521" style="stop-color:#C49B31"/>
			<stop  offset="0.8652" style="stop-color:#E6D25F"/>
			<stop  offset="0.9944" style="stop-color:#E7DB6F"/>
		</linearGradient>
		<polygon class="st56" points="28.9,32.9 28.9,32.9 28.9,32.9 		"/>
		<linearGradient id="SVGID_58_" gradientUnits="userSpaceOnUse" x1="39.1624" y1="31.3863" x2="42.1399" y2="31.3863">
			<stop  offset="0" style="stop-color:#C69C2C"/>
			<stop  offset="0.5521" style="stop-color:#C49B31"/>
			<stop  offset="0.8652" style="stop-color:#E6D25F"/>
			<stop  offset="0.9944" style="stop-color:#E7DB6F"/>
		</linearGradient>
		<path class="st57" d="M39.2,33.2C39.2,33.2,39.1,33.3,39.2,33.2C39.2,33.3,39.2,33.3,39.2,33.2c0.3-0.1,0.5-0.3,0.7-0.4
			c0,0,0,0,0.1-0.1c0.1-0.1,0.1-0.1,0.2-0.2c0,0,0,0,0,0c0,0,0,0,0,0c0,0.1-0.1,0.1-0.1,0.2c0,0,0,0-0.1,0.1
			c-0.1,0.1-0.1,0.2-0.2,0.2c0,0,0,0.1,0,0.1c0.2-0.1,0.4-0.2,0.5-0.4c0,0,0.1,0,0.1-0.1c0,0,0,0,0,0c0,0,0,0,0,0c0,0,0,0,0,0
			c0,0,0,0,0,0c0,0,0,0,0,0c0,0,0,0,0.1,0c0.1-0.1,0.2-0.2,0.3-0.3c0,0,0,0,0,0c0.1-0.1,0.2-0.2,0.2-0.3c0,0,0,0,0,0
			c0.1,0,0.1-0.1,0.1-0.1c0.5-0.6,0.8-1.4,1-2.2c0-0.1,0-0.2-0.1-0.2c-0.1-0.1-0.2,0-0.3,0.1c-0.2,0.2-0.2,0.4-0.3,0.6
			c-0.1,0.4-0.3,0.8-0.5,1.2c0,0,0,0.1,0,0.1c0,0,0,0,0,0c0,0,0,0,0,0c0,0-0.1,0.1-0.1,0.1c0,0,0,0,0,0c-0.1,0.1-0.1,0.1-0.2,0.2
			c-0.1,0.1-0.1,0.2-0.2,0.3c0,0.1-0.1,0.1-0.1,0.2c0-0.1,0.1-0.1,0.1-0.2c0-0.1,0.1-0.2,0.2-0.3c0.1-0.2,0.2-0.3,0.3-0.5
			c0.2-0.4,0.3-0.8,0.4-1.2c0-0.1,0-0.2-0.1-0.2c-0.1,0-0.2,0-0.2,0.1c-0.1,0.2-0.2,0.4-0.2,0.6c-0.1,0.5-0.3,1-0.6,1.5
			c-0.1,0.2-0.2,0.4-0.4,0.6c0,0,0,0.1-0.1,0C39.5,33,39.3,33.1,39.2,33.2z"/>
		<linearGradient id="SVGID_59_" gradientUnits="userSpaceOnUse" x1="39.5618" y1="32.8377" x2="39.5642" y2="32.8377">
			<stop  offset="0" style="stop-color:#C69C2C"/>
			<stop  offset="0.5521" style="stop-color:#C49B31"/>
			<stop  offset="0.8652" style="stop-color:#E6D25F"/>
			<stop  offset="0.9944" style="stop-color:#E7DB6F"/>
		</linearGradient>
		<polygon class="st58" points="39.6,32.8 39.6,32.8 39.6,32.8 39.6,32.8 39.6,32.8 		"/>
		<linearGradient id="SVGID_60_" gradientUnits="userSpaceOnUse" x1="28.9145" y1="32.9429" x2="28.9159" y2="32.9429">
			<stop  offset="0" style="stop-color:#C69C2C"/>
			<stop  offset="0.5521" style="stop-color:#C49B31"/>
			<stop  offset="0.8652" style="stop-color:#E6D25F"/>
			<stop  offset="0.9944" style="stop-color:#E7DB6F"/>
		</linearGradient>
		<polygon class="st59" points="28.9,32.9 28.9,32.9 28.9,32.9 		"/>
		<linearGradient id="SVGID_61_" gradientUnits="userSpaceOnUse" x1="28.7753" y1="32.8037" x2="28.777" y2="32.8037">
			<stop  offset="0" style="stop-color:#C69C2C"/>
			<stop  offset="0.5521" style="stop-color:#C49B31"/>
			<stop  offset="0.8652" style="stop-color:#E6D25F"/>
			<stop  offset="0.9944" style="stop-color:#E7DB6F"/>
		</linearGradient>
		<polygon class="st60" points="28.8,32.8 28.8,32.8 28.8,32.8 28.8,32.8 		"/>
		<linearGradient id="SVGID_62_" gradientUnits="userSpaceOnUse" x1="27.4575" y1="31.6134" x2="29.414" y2="31.6134">
			<stop  offset="0" style="stop-color:#C69C2C"/>
			<stop  offset="0.5521" style="stop-color:#C49B31"/>
			<stop  offset="0.8652" style="stop-color:#E6D25F"/>
			<stop  offset="0.9944" style="stop-color:#E7DB6F"/>
		</linearGradient>
		<path class="st61" d="M28.2,32.1c0.1,0,0.1,0.1,0.1,0.2c0.1,0,0.1,0.1,0.1,0.1c0.1,0,0.1,0.1,0.1,0.1c0,0,0.1,0,0.1,0.1
			c0.1,0,0.1,0.1,0.1,0.1c0.1,0,0.1,0,0.1,0.1c0.1,0,0.2,0.1,0.2,0.1c0.1,0,0.2,0.1,0.2,0.2c0,0,0,0,0,0c-0.3-0.3-0.6-0.6-0.8-1
			c-0.3-0.5-0.5-1-0.6-1.5c-0.1-0.2-0.1-0.4-0.2-0.6c-0.1-0.1-0.1-0.2-0.2-0.1c-0.1,0-0.1,0.1-0.1,0.2c0.1,0.4,0.2,0.7,0.3,1.1
			C27.9,31.6,28.1,31.8,28.2,32.1C28.2,32.1,28.2,32.1,28.2,32.1z"/>
		<linearGradient id="SVGID_63_" gradientUnits="userSpaceOnUse" x1="28.4619" y1="32.4557" x2="28.4641" y2="32.4557">
			<stop  offset="0" style="stop-color:#C69C2C"/>
			<stop  offset="0.5521" style="stop-color:#C49B31"/>
			<stop  offset="0.8652" style="stop-color:#E6D25F"/>
			<stop  offset="0.9944" style="stop-color:#E7DB6F"/>
		</linearGradient>
		<polygon class="st62" points="28.5,32.5 28.5,32.5 28.5,32.5 28.5,32.5 		"/>
		<linearGradient id="SVGID_64_" gradientUnits="userSpaceOnUse" x1="28.5668" y1="32.5596" x2="28.569" y2="32.5596">
			<stop  offset="0" style="stop-color:#C69C2C"/>
			<stop  offset="0.5521" style="stop-color:#C49B31"/>
			<stop  offset="0.8652" style="stop-color:#E6D25F"/>
			<stop  offset="0.9944" style="stop-color:#E7DB6F"/>
		</linearGradient>
		<polygon class="st63" points="28.6,32.6 28.6,32.6 28.6,32.6 28.6,32.6 		"/>
		<linearGradient id="SVGID_65_" gradientUnits="userSpaceOnUse" x1="28.1839" y1="32.0726" x2="28.186" y2="32.0726">
			<stop  offset="0" style="stop-color:#C69C2C"/>
			<stop  offset="0.5521" style="stop-color:#C49B31"/>
			<stop  offset="0.8652" style="stop-color:#E6D25F"/>
			<stop  offset="0.9944" style="stop-color:#E7DB6F"/>
		</linearGradient>
		<polygon class="st64" points="28.2,32.1 28.2,32.1 28.2,32.1 28.2,32.1 		"/>
		<linearGradient id="SVGID_66_" gradientUnits="userSpaceOnUse" x1="28.6358" y1="32.6646" x2="28.6379" y2="32.6646">
			<stop  offset="0" style="stop-color:#C69C2C"/>
			<stop  offset="0.5521" style="stop-color:#C49B31"/>
			<stop  offset="0.8652" style="stop-color:#E6D25F"/>
			<stop  offset="0.9944" style="stop-color:#E7DB6F"/>
		</linearGradient>
		<polygon class="st65" points="28.6,32.7 28.6,32.7 28.6,32.7 28.6,32.7 		"/>
		<linearGradient id="SVGID_67_" gradientUnits="userSpaceOnUse" x1="28.3578" y1="32.3162" x2="28.36" y2="32.3162">
			<stop  offset="0" style="stop-color:#C69C2C"/>
			<stop  offset="0.5521" style="stop-color:#C49B31"/>
			<stop  offset="0.8652" style="stop-color:#E6D25F"/>
			<stop  offset="0.9944" style="stop-color:#E7DB6F"/>
		</linearGradient>
		<polygon class="st66" points="28.4,32.3 28.4,32.3 28.4,32.3 28.4,32.3 		"/>
		<linearGradient id="SVGID_68_" gradientUnits="userSpaceOnUse" x1="28.2183" y1="32.1426" x2="28.2206" y2="32.1426">
			<stop  offset="0" style="stop-color:#C69C2C"/>
			<stop  offset="0.5521" style="stop-color:#C49B31"/>
			<stop  offset="0.8652" style="stop-color:#E6D25F"/>
			<stop  offset="0.9944" style="stop-color:#E7DB6F"/>
		</linearGradient>
		<polygon class="st67" points="28.2,32.1 28.2,32.1 28.2,32.1 28.2,32.1 		"/>
		<linearGradient id="SVGID_69_" gradientUnits="userSpaceOnUse" x1="28.3092" y1="31.9519" x2="29.5714" y2="31.9519">
			<stop  offset="0" style="stop-color:#C69C2C"/>
			<stop  offset="0.5521" style="stop-color:#C49B31"/>
			<stop  offset="0.8652" style="stop-color:#E6D25F"/>
			<stop  offset="0.9944" style="stop-color:#E7DB6F"/>
		</linearGradient>
		<path class="st68" d="M28.7,32.2c0.2,0.3,0.3,0.6,0.6,0.8c0,0,0.1,0.1,0.2,0.1c0,0.1,0.1,0.1,0.1,0.1c-0.1,0-0.1-0.1-0.1-0.1
			c0,0,0-0.1,0-0.1c-0.4-0.5-0.6-1.1-0.7-1.7c0-0.1-0.1-0.3-0.1-0.4c0-0.1-0.1-0.2-0.2-0.1c-0.1,0-0.1,0.1-0.1,0.2
			C28.4,31.4,28.5,31.8,28.7,32.2z"/>
		<linearGradient id="SVGID_70_" gradientUnits="userSpaceOnUse" x1="39.25" y1="33.2004" x2="39.7007" y2="33.2004">
			<stop  offset="0" style="stop-color:#C69C2C"/>
			<stop  offset="0.5521" style="stop-color:#C49B31"/>
			<stop  offset="0.8652" style="stop-color:#E6D25F"/>
			<stop  offset="0.9944" style="stop-color:#E7DB6F"/>
		</linearGradient>
		<path class="st69" d="M39.4,33.3C39.4,33.3,39.3,33.3,39.4,33.3c-0.1,0-0.1,0-0.1,0c0,0,0,0,0,0c0,0,0,0,0,0
			C39.3,33.4,39.3,33.4,39.4,33.3C39.4,33.3,39.4,33.3,39.4,33.3c0.1,0,0.2-0.1,0.3-0.1c0,0,0-0.1,0-0.1
			C39.6,33.1,39.5,33.2,39.4,33.3z"/>
		<linearGradient id="SVGID_71_" gradientUnits="userSpaceOnUse" x1="39.1208" y1="31.958" x2="40.3736" y2="31.958">
			<stop  offset="0" style="stop-color:#C69C2C"/>
			<stop  offset="0.5521" style="stop-color:#C49B31"/>
			<stop  offset="0.8652" style="stop-color:#E6D25F"/>
			<stop  offset="0.9944" style="stop-color:#E7DB6F"/>
		</linearGradient>
		<path class="st70" d="M39.2,33.2C39.2,33.2,39.2,33.1,39.2,33.2c0.2-0.2,0.3-0.2,0.4-0.3c0,0,0-0.1,0-0.1c0.1-0.2,0.3-0.4,0.4-0.6
			c0.2-0.4,0.3-0.8,0.4-1.3c0-0.1,0-0.1-0.1-0.2c-0.1,0-0.1,0-0.2,0.1c-0.1,0.1-0.1,0.2-0.1,0.4C39.9,31.9,39.7,32.5,39.2,33.2
			C39.2,33.1,39.2,33.1,39.2,33.2C39.2,33.1,39.2,33.1,39.2,33.2C39.1,33.2,39.1,33.2,39.2,33.2C39.1,33.2,39.2,33.2,39.2,33.2z"/>
		<linearGradient id="SVGID_72_" gradientUnits="userSpaceOnUse" x1="29.3925" y1="33.2583" x2="29.5116" y2="33.2583">
			<stop  offset="0" style="stop-color:#C69C2C"/>
			<stop  offset="0.5521" style="stop-color:#C49B31"/>
			<stop  offset="0.8652" style="stop-color:#E6D25F"/>
			<stop  offset="0.9944" style="stop-color:#E7DB6F"/>
		</linearGradient>
		<path class="st71" d="M29.5,33.3C29.5,33.3,29.5,33.3,29.5,33.3c0,0,0-0.1-0.1-0.1c0,0,0,0,0,0C29.4,33.3,29.5,33.3,29.5,33.3z"/>
	</g>
	<g>
		<linearGradient id="SVGID_73_" gradientUnits="userSpaceOnUse" x1="31.4638" y1="30.5343" x2="32.9318" y2="30.5343">
			<stop  offset="0" style="stop-color:#06097D"/>
			<stop  offset="5.701630e-02" style="stop-color:#04079E"/>
			<stop  offset="0.1822" style="stop-color:#0101F3"/>
			<stop  offset="0.1991" style="stop-color:#0000FF"/>
			<stop  offset="0.2021" style="stop-color:#0000FD"/>
			<stop  offset="0.2832" style="stop-color:#0304C6"/>
			<stop  offset="0.3532" style="stop-color:#04079E"/>
			<stop  offset="0.4085" style="stop-color:#060886"/>
			<stop  offset="0.4425" style="stop-color:#06097D"/>
			<stop  offset="0.4505" style="stop-color:#060980"/>
			<stop  offset="0.6339" style="stop-color:#0305B6"/>
			<stop  offset="0.7921" style="stop-color:#0202DE"/>
			<stop  offset="0.9175" style="stop-color:#0001F6"/>
			<stop  offset="0.9944" style="stop-color:#0000FF"/>
		</linearGradient>
		<path class="st72" d="M32.1,30.9H32v0.4h-0.5v-1.5h0.7c0.4,0,0.7,0.2,0.7,0.6c0,0.2-0.1,0.4-0.3,0.5l0.3,0.5h-0.6L32.1,30.9z
			 M32.2,30.2H32v0.4h0.2c0.1,0,0.2-0.1,0.2-0.2C32.4,30.2,32.3,30.2,32.2,30.2z"/>
		<linearGradient id="SVGID_74_" gradientUnits="userSpaceOnUse" x1="33.4217" y1="30.5343" x2="34.9311" y2="30.5343">
			<stop  offset="0" style="stop-color:#06097D"/>
			<stop  offset="5.701630e-02" style="stop-color:#04079E"/>
			<stop  offset="0.1822" style="stop-color:#0101F3"/>
			<stop  offset="0.1991" style="stop-color:#0000FF"/>
			<stop  offset="0.2021" style="stop-color:#0000FD"/>
			<stop  offset="0.2832" style="stop-color:#0304C6"/>
			<stop  offset="0.3532" style="stop-color:#04079E"/>
			<stop  offset="0.4085" style="stop-color:#060886"/>
			<stop  offset="0.4425" style="stop-color:#06097D"/>
			<stop  offset="0.4505" style="stop-color:#060980"/>
			<stop  offset="0.6339" style="stop-color:#0305B6"/>
			<stop  offset="0.7921" style="stop-color:#0202DE"/>
			<stop  offset="0.9175" style="stop-color:#0001F6"/>
			<stop  offset="0.9944" style="stop-color:#0000FF"/>
		</linearGradient>
		<path class="st73" d="M34.9,29.8v1.5h-0.4l-0.6-0.7v0.7h-0.5v-1.5h0.4l0.6,0.7v-0.7H34.9z"/>
		<linearGradient id="SVGID_75_" gradientUnits="userSpaceOnUse" x1="35.5086" y1="30.5343" x2="36.7534" y2="30.5343">
			<stop  offset="0" style="stop-color:#06097D"/>
			<stop  offset="5.701630e-02" style="stop-color:#04079E"/>
			<stop  offset="0.1822" style="stop-color:#0101F3"/>
			<stop  offset="0.1991" style="stop-color:#0000FF"/>
			<stop  offset="0.2021" style="stop-color:#0000FD"/>
			<stop  offset="0.2832" style="stop-color:#0304C6"/>
			<stop  offset="0.3532" style="stop-color:#04079E"/>
			<stop  offset="0.4085" style="stop-color:#060886"/>
			<stop  offset="0.4425" style="stop-color:#06097D"/>
			<stop  offset="0.4505" style="stop-color:#060980"/>
			<stop  offset="0.6339" style="stop-color:#0305B6"/>
			<stop  offset="0.7921" style="stop-color:#0202DE"/>
			<stop  offset="0.9175" style="stop-color:#0001F6"/>
			<stop  offset="0.9944" style="stop-color:#0000FF"/>
		</linearGradient>
		<path class="st74" d="M36,30.2v0.3h0.6v0.4H36v0.5h-0.5v-1.5h1.2v0.4H36z"/>
	</g>
	<linearGradient id="SVGID_76_" gradientUnits="userSpaceOnUse" x1="18.0502" y1="33.1987" x2="19.4684" y2="33.1987">
		<stop  offset="0" style="stop-color:#C69C2C"/>
		<stop  offset="0.5521" style="stop-color:#C49B31"/>
		<stop  offset="0.8652" style="stop-color:#E6D25F"/>
		<stop  offset="0.9944" style="stop-color:#E7DB6F"/>
	</linearGradient>
	<path class="st75" d="M19,33C18.9,33,18.9,33,19,33c-0.1-0.2-0.1-0.3-0.2-0.5c0,0,0,0,0,0c0,0,0,0,0,0c0,0.1-0.1,0.3-0.1,0.4
		c0,0,0,0,0,0c-0.2,0-0.3,0-0.5,0c0,0,0,0,0,0c0.1,0.1,0.3,0.2,0.4,0.3c0,0,0,0,0,0c0,0.1-0.1,0.3-0.1,0.4c0,0,0,0,0,0h0
		c0.1-0.1,0.3-0.2,0.4-0.3c0,0,0,0,0,0c0.1,0.1,0.3,0.2,0.4,0.3h0c0,0,0,0,0,0c-0.1-0.2-0.1-0.3-0.2-0.5c0,0,0,0,0,0
		c0.1-0.1,0.3-0.2,0.4-0.3c0,0,0,0,0,0v0C19.3,33,19.1,33,19,33z"/>
	<linearGradient id="SVGID_77_" gradientUnits="userSpaceOnUse" x1="49.1623" y1="33.4904" x2="50.5805" y2="33.4904">
		<stop  offset="0" style="stop-color:#C69C2C"/>
		<stop  offset="0.5521" style="stop-color:#C49B31"/>
		<stop  offset="0.8652" style="stop-color:#E6D25F"/>
		<stop  offset="0.9944" style="stop-color:#E7DB6F"/>
	</linearGradient>
	<path class="st76" d="M50.1,33.3C50,33.3,50,33.3,50.1,33.3c-0.1-0.2-0.1-0.3-0.2-0.5c0,0,0,0,0,0c0,0,0,0,0,0
		c0,0.1-0.1,0.3-0.1,0.4c0,0,0,0,0,0c-0.2,0-0.3,0-0.5,0c0,0,0,0,0,0c0.1,0.1,0.3,0.2,0.4,0.3c0,0,0,0,0,0c0,0.1-0.1,0.3-0.1,0.4
		c0,0,0,0,0,0h0c0.1-0.1,0.3-0.2,0.4-0.3c0,0,0,0,0,0c0.1,0.1,0.3,0.2,0.4,0.3h0c0,0,0,0,0,0c-0.1-0.2-0.1-0.3-0.2-0.5c0,0,0,0,0,0
		c0.1-0.1,0.3-0.2,0.4-0.3c0,0,0,0,0,0v0C50.4,33.3,50.2,33.3,50.1,33.3z"/>
</g>
</svg>
